<svg width="20" height="20" viewBox="0 0 20 20" fill="none" xmlns="http://www.w3.org/2000/svg">
<path d="M15.6633 5.66249L7.26562 14.0625H13.125C13.3736 14.0625 13.6121 14.1613 13.7879 14.3371C13.9637 14.5129 14.0625 14.7514 14.0625 15C14.0625 15.2486 13.9637 15.4871 13.7879 15.6629C13.6121 15.8387 13.3736 15.9375 13.125 15.9375H5C4.75136 15.9375 4.5129 15.8387 4.33709 15.6629C4.16127 15.4871 4.0625 15.2486 4.0625 15V6.87499C4.0625 6.62635 4.16127 6.38789 4.33709 6.21208C4.5129 6.03626 4.75136 5.93749 5 5.93749C5.24864 5.93749 5.4871 6.03626 5.66291 6.21208C5.83873 6.38789 5.9375 6.62635 5.9375 6.87499V12.7344L14.3367 4.33671C14.4239 4.2495 14.5275 4.18033 14.6414 4.13313C14.7553 4.08594 14.8775 4.06165 15.0008 4.06165C15.1241 4.06165 15.2462 4.08594 15.3602 4.13313C15.4741 4.18033 15.5776 4.2495 15.6648 4.33671C15.752 4.42391 15.8212 4.52744 15.8684 4.64138C15.9156 4.75532 15.9399 4.87744 15.9399 5.00077C15.9399 5.1241 15.9156 5.24622 15.8684 5.36016C15.8212 5.4741 15.752 5.57763 15.6648 5.66483L15.6633 5.66249Z" fill="#1474E1"/>
</svg>
