<svg width="9" height="16" viewBox="0 0 9 16" fill="none" xmlns="http://www.w3.org/2000/svg">
<path d="M8.41325 8.66328L2.16325 14.9133C1.98713 15.0894 1.74826 15.1883 1.49918 15.1883C1.25011 15.1883 1.01124 15.0894 0.835122 14.9133C0.659002 14.7372 0.560059 14.4983 0.560059 14.2492C0.560059 14.0001 0.659002 13.7613 0.835122 13.5852L6.42184 8L0.836685 2.41328C0.749479 2.32607 0.680303 2.22254 0.633108 2.1086C0.585912 1.99466 0.561621 1.87254 0.561621 1.74922C0.561621 1.62589 0.585912 1.50377 0.633108 1.38983C0.680303 1.27589 0.749479 1.17236 0.836685 1.08515C0.923891 0.997947 1.02742 0.928771 1.14136 0.881576C1.2553 0.83438 1.37742 0.810089 1.50075 0.810089C1.62408 0.810089 1.7462 0.83438 1.86014 0.881576C1.97408 0.928771 2.0776 0.997947 2.16481 1.08515L8.41481 7.33515C8.50211 7.42235 8.57133 7.52593 8.61852 7.63994C8.6657 7.75395 8.68991 7.87615 8.68977 7.99954C8.68962 8.12293 8.66512 8.24508 8.61767 8.35897C8.57022 8.47287 8.50075 8.57629 8.41325 8.66328Z" fill="#A3A3A3"/>
</svg>
