<svg width="10" height="10" viewBox="0 0 10 10" fill="none" xmlns="http://www.w3.org/2000/svg">
<path d="M8.34634 3.97109L5.22134 7.09609C5.19232 7.12515 5.15785 7.1482 5.11992 7.16393C5.08198 7.17965 5.04131 7.18775 5.00025 7.18775C4.95918 7.18775 4.91851 7.17965 4.88058 7.16393C4.84264 7.1482 4.80818 7.12515 4.77915 7.09609L1.65415 3.97109C1.6104 3.92739 1.5806 3.87168 1.56852 3.81103C1.55644 3.75038 1.56263 3.68751 1.5863 3.63038C1.60997 3.57325 1.65007 3.52442 1.7015 3.49009C1.75294 3.45575 1.8134 3.43745 1.87525 3.4375H8.12525C8.18709 3.43745 8.24756 3.45575 8.29899 3.49009C8.35043 3.52442 8.39052 3.57325 8.41419 3.63038C8.43786 3.68751 8.44405 3.75038 8.43197 3.81103C8.4199 3.87168 8.39009 3.92739 8.34634 3.97109Z" fill="#001329"/>
</svg>
