<svg xmlns="http://www.w3.org/2000/svg" width="28" height="19" viewBox="0 0 28 19"><defs><style>.a{fill:#f38b1c;}</style></defs><g transform="translate(-0.441 0.206)"><g transform="translate(0 0)"><path class="a" d="M12.354,19a7.715,7.715,0,0,1-2.089-.646,35.168,35.168,0,0,1-8.7-6l-.589-.628A5.67,5.67,0,0,1,.539,11.2,2.837,2.837,0,0,1,0,9.512a2.969,2.969,0,0,1,.584-1.8l.606-.665L1.326,6.9A34.33,34.33,0,0,1,10.489.532l.379-.148A6.233,6.233,0,0,1,12.354,0a3.059,3.059,0,0,1,1.415.348,2.964,2.964,0,0,1,1.257,1.431,15.719,15.719,0,0,1,.406,1.686,36.011,36.011,0,0,1,.378,5.465v.56a43.806,43.806,0,0,1-.336,5.84l-.176.861a6.252,6.252,0,0,1-.363,1.241A2.818,2.818,0,0,1,12.443,19Zm7.553-7.614a1.886,1.886,0,0,1,0-3.771L25.662,7.1a2.4,2.4,0,0,1,0,4.807Z" transform="translate(0.441 -0.206)"/></g></g></svg>