<svg width="358" height="239" viewBox="0 0 358 239" fill="none" xmlns="http://www.w3.org/2000/svg">
<path d="M318.357 71.7285L313.789 93.8529L310.849 90.9841L305.846 94.5498L302.023 89.8051L293.45 96.0391L286.123 83.786L277.951 88.5736L274.71 84.1058L264.333 89.9531L261.211 83.2657L268.485 48.0337L307.484 56.0863L318.357 71.7285Z" fill="#CCEEFF"/>
<path d="M307.483 56.0859L318.357 71.7282L304.829 68.9358L307.483 56.0859Z" fill="#AAE3FF"/>
<path d="M312.814 98.2729L306.117 130.732L253.587 119.887L260.236 87.6904L263.358 94.3731L273.74 88.5258L276.976 92.9936L285.153 88.2107L292.475 100.464L301.053 94.2299L304.872 98.9746L309.879 95.4089L312.814 98.2729Z" fill="#CCEEFF"/>
<path d="M237.63 94.4688L184.097 97.7815L179.844 29.0646L219.596 26.6016L234.188 38.8452L237.63 94.4688Z" fill="#CCEEFF"/>
<path d="M219.597 26.6016L234.189 38.8452L220.403 39.6996L219.597 26.6016Z" fill="#80D4FF"/>
<path d="M204.755 72.8406L204.549 71.2893C204.01 68.0769 204.888 64.4825 207.681 60.7259C210.196 57.4037 211.561 54.9836 211.413 52.2867C211.242 49.2317 209.213 47.3033 205.437 47.456C203.28 47.5754 200.926 48.4298 199.494 49.6518L197.848 45.962C199.743 44.4154 203.103 43.2651 206.277 43.0884C213.161 42.7018 216.511 46.7782 216.769 51.3272C216.998 55.3989 214.888 58.4586 212.206 62.0338C209.748 65.294 208.936 67.9814 209.285 71.0268L209.433 72.5781L204.755 72.8406ZM203.905 81.2942C203.781 79.0794 205.189 77.4374 207.285 77.3228C209.38 77.2035 210.903 78.6832 211.027 80.898C211.146 82.9935 209.857 84.688 207.643 84.8122C205.552 84.9267 204.024 83.3897 203.905 81.2942Z" fill="#80D4FF"/>
<path d="M70.8745 61.1506L65.4902 58.7114L64.7456 60.363C64.526 60.8499 64.0487 61.1554 63.5188 61.1792C63.2229 61.1936 62.9317 61.2222 62.6405 61.2652C62.1155 61.3463 61.5904 61.1315 61.2802 60.7019L60.2252 59.2317L55.4137 62.6781L56.4686 64.1483C56.7789 64.5779 56.8075 65.1459 56.5641 65.6184C56.4257 65.881 56.3063 66.1483 56.2013 66.4251C56.0104 66.9216 55.5617 67.2748 55.0319 67.3225L53.2275 67.4991L53.8099 73.3847L55.619 73.2033C56.1488 73.1508 56.65 73.4133 56.9412 73.862C57.0176 73.9861 57.0987 74.1054 57.1846 74.2248C57.2706 74.3441 57.3565 74.4587 57.4472 74.5732C57.7765 74.9885 57.8672 75.547 57.6476 76.0291L56.8935 77.6902L62.2825 80.1341L63.032 78.4826C63.2515 77.9957 63.7289 77.6902 64.2587 77.6663C64.5499 77.652 64.8458 77.6234 65.137 77.5804C65.6621 77.4993 66.1871 77.7141 66.4974 78.1437L67.5523 79.6138L72.3638 76.1675L71.3089 74.6973C70.9987 74.2677 70.97 73.6997 71.2135 73.2271C71.3471 72.9646 71.4712 72.6973 71.5762 72.4252C71.7672 71.9288 72.2159 71.5756 72.7457 71.5231L74.55 71.3464L73.9677 65.4609L72.1586 65.6375C71.6287 65.69 71.1323 65.4275 70.8411 64.9788C70.7648 64.8547 70.6788 64.7354 70.5929 64.616C70.507 64.4967 70.4211 64.3821 70.3304 64.2676C69.9963 63.8523 69.9103 63.2891 70.1299 62.8069L70.8745 61.1506ZM67.8196 66.597C69.3757 68.7736 68.8793 71.7951 66.7027 73.356C64.526 74.9121 61.4997 74.4157 59.9388 72.2438C58.3827 70.0672 58.8792 67.0361 61.0558 65.48C63.2324 63.9191 66.2587 64.4251 67.8196 66.597Z" fill="#CCEEFF"/>
<path d="M314.267 139.242L310.677 141.314L311.312 142.412C311.498 142.737 311.479 143.133 311.279 143.443C311.164 143.615 311.064 143.796 310.968 143.978C310.801 144.307 310.462 144.522 310.095 144.522H308.825V148.665H310.095C310.467 148.665 310.801 148.88 310.968 149.209C311.064 149.395 311.164 149.572 311.279 149.744C311.484 150.054 311.498 150.455 311.312 150.775L310.677 151.873L314.267 153.944L314.902 152.842C315.088 152.517 315.441 152.34 315.818 152.36C315.918 152.364 316.023 152.369 316.124 152.369C316.224 152.369 316.329 152.364 316.429 152.36C316.801 152.34 317.155 152.517 317.341 152.837L317.98 153.944L321.57 151.873L320.935 150.77C320.749 150.445 320.768 150.049 320.973 149.739C321.088 149.567 321.188 149.391 321.284 149.204C321.451 148.875 321.785 148.66 322.157 148.66H323.427V144.517H322.157C321.785 144.517 321.451 144.302 321.284 143.973C321.188 143.787 321.088 143.61 320.973 143.438C320.768 143.128 320.749 142.727 320.935 142.407L321.57 141.305L317.98 139.233L317.346 140.336C317.159 140.66 316.806 140.837 316.434 140.818C316.334 140.813 316.229 140.808 316.128 140.808C316.028 140.808 315.923 140.813 315.823 140.818C315.451 140.837 315.093 140.66 314.906 140.336L314.267 139.242ZM316.124 143.204C318 143.204 319.517 144.722 319.517 146.598C319.517 148.474 318 149.992 316.124 149.992C314.248 149.992 312.73 148.469 312.73 146.598C312.73 144.722 314.248 143.204 316.124 143.204Z" fill="#D0D7F2"/>
<path d="M81.7688 43.5135L78.4752 46.029L79.2485 47.0362C79.4776 47.3321 79.511 47.7283 79.3487 48.0672C79.258 48.2534 79.1816 48.4443 79.11 48.64C78.9859 48.9885 78.6804 49.2462 78.3129 49.294L77.0527 49.4563L77.5873 53.5661L78.8475 53.4038C79.2151 53.3561 79.5778 53.5231 79.7879 53.8334C79.9072 54.0053 80.0313 54.1675 80.1649 54.3251C80.4084 54.6067 80.4752 54.9981 80.332 55.3466L79.8451 56.516L83.6733 58.1055L84.1602 56.9313C84.3034 56.5876 84.6328 56.3633 85.0051 56.3346C85.1053 56.3251 85.2056 56.3155 85.3106 56.3012C85.4108 56.2869 85.5111 56.2726 85.6113 56.2535C85.9789 56.1867 86.3512 56.3155 86.5755 56.6115L87.3536 57.6282L90.6472 55.1127L89.8739 54.1007C89.6496 53.8048 89.6161 53.4086 89.7784 53.0697C89.8691 52.8835 89.9455 52.6926 90.0171 52.5016C90.1412 52.1532 90.4467 51.8954 90.8143 51.8477L92.0744 51.6854L91.5398 47.5756L90.2796 47.7379C89.9121 47.7856 89.5493 47.6185 89.3393 47.313C89.2247 47.1412 89.0959 46.9789 88.9622 46.8214C88.7188 46.5398 88.6519 46.1483 88.7951 45.7999L89.282 44.6257L85.4538 43.0361L84.9669 44.2104C84.8237 44.5541 84.4944 44.7736 84.1268 44.807C84.0266 44.8166 83.9216 44.8261 83.8213 44.8405C83.7211 44.8548 83.6208 44.8691 83.5206 44.8882C83.1531 44.955 82.776 44.8261 82.5516 44.5302L81.7688 43.5135ZM84.122 47.2033C85.9789 46.9598 87.6829 48.2725 87.9264 50.1293C88.1698 51.9861 86.8572 53.695 85.0003 53.9337C83.1435 54.1771 81.4347 52.8644 81.196 51.0028C80.9478 49.1508 82.2604 47.4467 84.122 47.2033Z" fill="#CCEEFF"/>
<path d="M57.1941 151.209C57.3803 146.589 57.3087 141.963 57.0032 137.352C56.3779 127.839 54.8122 118.397 52.6594 109.118C51.447 103.891 49.9577 98.7552 48.4064 93.6239C48.3587 93.4711 48.1104 93.5141 48.1534 93.6764C52.9554 111.767 56.8982 130.431 56.6261 149.238C56.5497 154.498 55.9387 159.668 55.4423 164.899C55.428 165.038 55.6571 165.095 55.6905 164.952C56.6834 160.47 57.0079 155.782 57.1941 151.209Z" fill="#EBEBEB"/>
<path d="M48.153 93.6714C48.153 93.6714 40.8737 112.144 42.5062 116.483C44.1339 120.827 47.4943 121.753 47.4943 121.753C47.4943 121.753 43.0408 128.111 46.153 134.073C49.2652 140.035 56.177 139.753 56.6352 146.512C56.64 146.512 57.0219 118.249 48.153 93.6714Z" fill="#80D4FF"/>
<path d="M55.8479 134.842C55.8574 134.814 55.8527 134.78 55.8383 134.747C54.8168 122.188 52.5877 109.668 48.7786 97.5863C48.769 97.5529 48.707 97.5625 48.7165 97.6007C50.1581 103.004 51.4421 108.436 52.54 113.897C51.5948 112.923 50.3586 112.365 49.065 111.959C49.0411 111.949 49.0268 111.987 49.0507 111.997C50.3967 112.579 51.6855 113.252 52.6354 114.393C52.8502 115.462 53.0555 116.536 53.256 117.606C51.6283 115.787 49.3752 114.885 47.1175 114.03C47.084 114.016 47.0697 114.069 47.0984 114.078C49.4468 115.033 51.7905 116.269 53.3848 118.293C53.9385 121.358 54.4254 124.436 54.8455 127.52C53.6569 126.279 52.1915 125.444 50.5065 125.033C50.454 125.019 50.4254 125.095 50.4779 125.109C52.2058 125.606 53.6951 126.575 54.8789 127.93C54.8884 127.94 54.898 127.945 54.9075 127.95C55.0555 129.033 55.1892 130.121 55.318 131.21C54.4016 130.427 53.3896 129.835 52.2774 129.377C52.2488 129.362 52.2297 129.41 52.2631 129.424C53.3944 129.907 54.4111 130.599 55.3085 131.439C55.3228 131.448 55.3324 131.448 55.3467 131.453C55.466 132.489 55.5901 133.525 55.6951 134.561C54.0245 132.551 51.9624 131.095 49.5232 130.155C49.4755 130.136 49.4516 130.207 49.4946 130.231C51.8669 131.262 53.9576 132.899 55.5758 134.914C55.6188 134.971 55.676 134.976 55.7285 134.962C55.8861 136.551 56.0245 138.145 56.1438 139.74C56.1438 139.764 56.182 139.764 56.182 139.74C56.0961 138.107 55.9815 136.475 55.8479 134.842Z" fill="white"/>
<path d="M50.0012 110.125C48.7411 109.256 47.1372 108.889 45.6289 108.76C45.5907 108.755 45.5907 108.813 45.6241 108.817C47.1898 109.051 48.5072 109.619 49.9487 110.23C50.0108 110.254 50.0538 110.163 50.0012 110.125Z" fill="white"/>
<path d="M50.8835 129.682C49.8859 129.08 48.7451 128.741 47.5995 128.56C47.5613 128.555 47.5565 128.617 47.5947 128.622C48.7546 128.832 49.7857 129.247 50.8406 129.763C50.8883 129.782 50.9265 129.705 50.8835 129.682Z" fill="white"/>
<path d="M76.3255 116.789C73.2897 118.923 70.3779 121.386 67.9006 124.154C65.2609 127.104 63.3373 130.455 61.9912 134.173C59.237 141.792 57.7286 150.04 57.5902 158.136C57.5138 162.675 57.9148 167.176 58.8885 171.611C58.9219 171.773 59.1654 171.725 59.1415 171.563C57.9529 163.759 57.9959 155.797 59.2752 148.011C60.5258 140.369 62.4876 132.054 67.3469 125.844C69.9913 122.464 73.2897 119.801 76.5498 117.051C76.7217 116.899 76.5021 116.665 76.3255 116.789Z" fill="#EBEBEB"/>
<path d="M58.6641 152.626C58.6641 152.626 61.1653 148.416 64.8026 144.779C68.4446 141.141 71.5091 138.554 71.9817 136.144C72.4542 133.738 68.3348 131.962 68.3348 131.962C68.3348 131.962 73.3707 132.864 74.7502 130.755C76.1297 128.64 76.7932 116.396 76.7932 116.396C76.7932 116.396 67.6284 122.941 63.3562 132.115C59.0937 141.285 58.6641 152.626 58.6641 152.626Z" fill="#80D4FF"/>
<path d="M73.6298 119.533C69.773 123.323 65.8923 127.357 63.6202 132.335C62.8421 134.039 62.1786 135.81 61.5963 137.615C61.5963 137.619 61.5963 137.619 61.5915 137.624C61.4722 137.987 61.3576 138.345 61.243 138.713C61.2335 138.732 61.2239 138.751 61.2239 138.77C60.1022 142.488 59.3098 146.331 58.6225 150.083C58.6177 150.107 58.6559 150.121 58.6607 150.097C59.0569 148.188 59.4912 146.259 59.9781 144.336C59.9972 144.336 60.0115 144.331 60.0306 144.326C60.8087 143.997 61.5963 143.791 62.4364 143.715C62.4889 143.71 62.4889 143.615 62.4316 143.62C61.6201 143.658 60.823 143.801 60.0545 144.054C60.4984 142.321 60.9805 140.588 61.5247 138.884C63.2956 138.45 65.1429 138.216 66.9615 138.173C66.9806 138.173 66.9854 138.145 66.9663 138.145C65.1333 138.059 63.4101 138.216 61.6201 138.598C61.7156 138.307 61.8111 138.016 61.9113 137.724C63.1046 137.452 64.3075 137.223 65.5295 137.114C65.5534 137.114 65.5486 137.075 65.5295 137.075C64.3314 137.109 63.1524 137.233 61.9877 137.505C62.4841 136.03 63.0235 134.574 63.6249 133.156C64.1214 131.982 64.7085 130.87 65.3577 129.796C66.3362 129.576 67.2861 129.362 68.2933 129.271C68.3219 129.266 68.3171 129.223 68.2885 129.223C67.3768 129.166 66.4269 129.233 65.5438 129.495C66.0259 128.717 66.5319 127.953 67.0761 127.214C69.1334 126.76 71.2145 126.335 73.3148 126.732C73.353 126.736 73.3625 126.679 73.3291 126.669C71.3291 126.144 69.3434 126.445 67.3481 126.841C67.5677 126.55 67.7873 126.268 68.0116 125.982C69.2718 125.591 70.5272 125.405 71.8542 125.381C71.8828 125.381 71.8876 125.342 71.8589 125.338C70.6513 125.223 69.4436 125.338 68.2789 125.658C69.9782 123.548 71.8542 121.562 73.711 119.6C73.7874 119.495 73.7205 119.443 73.6298 119.533Z" fill="white"/>
<path d="M73.5232 127.882C72.9218 127.82 72.306 127.748 71.6998 127.82C71.6282 127.829 71.633 127.949 71.7046 127.949C72.306 127.968 72.9122 127.92 73.5137 127.954C73.5662 127.954 73.571 127.887 73.5232 127.882Z" fill="white"/>
<path d="M66.927 139.762C65.9627 139.753 65.0033 140.011 64.1011 140.33C64.0773 140.34 64.0916 140.378 64.1155 140.369C65.0463 140.144 65.9914 140.058 66.9365 139.901C67.0129 139.887 67.0081 139.762 66.927 139.762Z" fill="white"/>
<path d="M64.9498 135.658C64.5584 135.639 64.1336 135.705 63.7517 135.767C63.7135 135.772 63.7135 135.839 63.7565 135.839C64.1479 135.844 64.5727 135.858 64.9594 135.782C65.0262 135.767 65.0214 135.662 64.9498 135.658Z" fill="white"/>
<path d="M31.7958 129.782C34.7457 130.808 37.6718 132.126 40.3162 133.792C43.1325 135.572 45.4666 137.835 47.4141 140.532C51.4046 146.059 54.5312 152.389 56.5121 158.904C57.6243 162.561 58.3355 166.293 58.579 170.107C58.5885 170.246 58.3833 170.265 58.3642 170.126C57.5193 163.539 55.6434 157.105 52.8128 151.095C50.0347 145.2 46.5215 138.928 41.1563 135.023C38.235 132.899 34.951 131.505 31.6765 130.035C31.5046 129.968 31.624 129.725 31.7958 129.782Z" fill="#EBEBEB"/>
<path d="M54.3728 154.703C54.3728 154.703 51.3751 151.873 47.5899 149.773C43.8046 147.668 40.7211 146.283 39.7855 144.446C38.8451 142.608 41.7712 140.221 41.7712 140.221C41.7712 140.221 37.9048 142.116 36.301 140.727C34.6971 139.333 31.3271 129.577 31.3271 129.577C31.3271 129.577 40.2581 132.756 45.8333 139.19C51.4038 145.625 54.3728 154.703 54.3728 154.703Z" fill="#80D4FF"/>
<path d="M53.9045 152.694C49.4367 144.312 43.4796 136.727 35.3124 131.72C35.3076 131.72 35.3029 131.725 35.3076 131.725C37.4556 133.095 39.4366 134.675 41.2839 136.403C39.6323 136.355 37.9473 136.622 36.4819 137.415C36.4485 137.434 36.4723 137.477 36.5057 137.467C38.1382 136.914 39.7087 136.551 41.4461 136.632C41.47 136.632 41.4843 136.622 41.5034 136.613C41.7946 136.89 42.081 137.167 42.3626 137.448C41.5034 137.486 40.6347 137.606 39.7993 137.787C39.7755 137.792 39.785 137.825 39.8041 137.821C40.7111 137.644 41.5941 137.587 42.5154 137.596C44.0142 139.1 45.408 140.708 46.7255 142.379C46.1288 142.293 45.5035 142.341 44.9307 142.508C44.8877 142.522 44.8973 142.58 44.945 142.575C45.5942 142.494 46.2147 142.503 46.8591 142.546C47.1025 142.856 47.3508 143.167 47.5894 143.482C45.7517 143.372 43.9521 143.549 42.1717 144.007C42.1431 144.012 42.1526 144.055 42.1812 144.05C44.0237 143.687 45.8758 143.572 47.7469 143.687C47.9761 143.988 48.1909 144.298 48.4152 144.603C47.3173 144.57 46.2577 144.708 45.1884 144.971C45.1455 144.981 45.1598 145.043 45.2028 145.038C46.3006 144.79 47.4176 144.723 48.5441 144.775C49.5035 146.097 50.4248 147.453 51.3079 148.823C50.8401 148.728 50.3484 148.78 49.8902 148.909C49.8663 148.914 49.8711 148.952 49.8997 148.947C50.4248 148.885 50.9164 148.952 51.432 149.019C52.2291 150.255 52.9976 151.506 53.7327 152.766C53.7948 152.885 53.9666 152.804 53.9045 152.694Z" fill="white"/>
<path d="M46.9596 145.739C46.0861 145.662 45.1983 145.801 44.3629 146.054C44.3391 146.063 44.3438 146.097 44.3725 146.092C45.2317 145.934 46.0813 145.872 46.9501 145.829C47.0121 145.829 47.0217 145.744 46.9596 145.739Z" fill="white"/>
<path d="M39.1689 135.524C38.7728 135.481 38.3623 135.528 37.9708 135.595C37.9231 135.605 37.9374 135.672 37.9852 135.667C38.3766 135.624 38.768 135.638 39.1594 135.629C39.2262 135.624 39.2358 135.528 39.1689 135.524Z" fill="white"/>
<path d="M65.8892 182.426H45.7314L48.605 161.371L49.3401 155.973H62.2806L63.0157 161.371L65.8892 182.426Z" fill="#AAE3FF"/>
<path d="M63.0152 161.371H48.6045L49.3396 155.973H62.2801L63.0152 161.371Z" fill="#55C6FF"/>
<path d="M64.1291 154.102H47.4893V158.675H64.1291V154.102Z" fill="#AAE3FF"/>
<path d="M32.915 182.428L69.1971 182.313L105.479 182.27L178.043 182.189L250.608 182.27L286.89 182.313L323.172 182.428L286.89 182.547L250.608 182.585L178.043 182.666L105.479 182.585L69.1971 182.542L32.915 182.428Z" fill="#263238"/>
<path d="M179 218.003C254.592 218.003 315.871 211.289 315.871 203.006C315.871 194.723 254.592 188.008 179 188.008C103.409 188.008 42.1299 194.723 42.1299 203.006C42.1299 211.289 103.409 218.003 179 218.003Z" fill="#AAE3FF"/>
<path d="M147.138 200.523C146.025 200.9 114.135 201.01 112.913 200.247C112.45 199.96 112.163 195.316 111.972 189.693C111.929 188.48 111.896 187.225 111.867 185.95L109.28 168.938L130.598 168.8L132.612 185.812L132.531 189.554C132.531 189.554 144.76 194.972 146.006 195.955C147.252 196.943 148.25 200.146 147.138 200.523Z" fill="#EB9481"/>
<path d="M147.137 200.523C146.025 200.9 114.135 201.01 112.913 200.246C112.349 199.893 112.044 193.11 111.872 185.955L132.617 185.821L132.536 189.564C132.536 189.564 144.765 194.981 146.011 195.965C147.252 196.943 148.25 200.146 147.137 200.523Z" fill="white"/>
<path d="M147.138 200.522C146.026 200.9 114.135 201.009 112.913 200.246C112.45 199.959 112.164 195.315 111.973 189.692L132.536 189.558C132.536 189.558 144.765 194.976 146.011 195.959C147.252 196.942 148.25 200.145 147.138 200.522Z" fill="#A6A6A6"/>
<path d="M146.672 199.249C141.326 199.134 119.751 199.186 114.457 199.482C114.414 199.482 114.414 199.516 114.457 199.516C119.755 199.745 141.326 199.516 146.672 199.334C146.787 199.33 146.787 199.249 146.672 199.249Z" fill="#263238"/>
<path d="M143.957 194.824C142.687 194.776 141.451 195.382 140.763 196.141C140.1 196.867 139.536 197.893 139.579 199.001C139.579 199.034 139.642 199.034 139.646 199.001C139.942 196.905 141.842 195.063 143.961 194.891C144 194.886 144 194.824 143.957 194.824Z" fill="#263238"/>
<path d="M134.61 190.089C132.471 190.065 129.994 190.829 128.667 192.585C128.615 192.652 128.715 192.724 128.777 192.69C130.71 191.688 132.543 190.939 134.648 190.351C134.796 190.308 134.763 190.089 134.61 190.089Z" fill="#263238"/>
<path d="M136.267 190.723C134.129 190.699 131.651 191.463 130.324 193.22C130.272 193.286 130.372 193.358 130.434 193.325C132.367 192.322 134.2 191.573 136.305 190.986C136.453 190.948 136.42 190.728 136.267 190.723Z" fill="#263238"/>
<path d="M137.917 191.363C135.779 191.339 133.302 192.103 131.975 193.859C131.922 193.926 132.022 193.998 132.084 193.964C134.018 192.962 135.851 192.213 137.956 191.625C138.104 191.582 138.07 191.363 137.917 191.363Z" fill="#263238"/>
<path d="M139.575 192.002C137.436 191.979 134.959 192.742 133.632 194.499C133.579 194.566 133.68 194.637 133.742 194.604C135.67 193.602 137.508 192.852 139.613 192.265C139.761 192.222 139.727 192.002 139.575 192.002Z" fill="#263238"/>
<path d="M115.803 194.399C113.402 194.413 113.421 198.146 115.827 198.132C118.228 198.113 118.209 194.385 115.803 194.399Z" fill="#263238"/>
<path d="M136.902 184.37C135.814 183.477 134.454 184.36 133.79 185.291C132.711 186.804 131.976 188.924 131.867 190.771C131.862 190.819 131.9 190.833 131.933 190.833C131.981 190.986 132.163 191.114 132.32 191.005C133.838 189.945 135.595 189 136.745 187.506C137.413 186.632 137.934 185.215 136.902 184.37ZM134.296 188.924C133.561 189.463 132.807 189.964 132.091 190.527C132.468 189.458 132.797 188.379 133.284 187.353C133.518 186.861 133.762 186.36 134.062 185.907C134.525 185.2 136.621 183.401 136.84 185.73C136.96 187.014 135.17 188.284 134.296 188.924Z" fill="#263238"/>
<path d="M126.553 191.583C128.419 191.864 130.338 191.325 132.166 191.034C132.357 191.005 132.4 190.785 132.324 190.642C132.353 190.618 132.362 190.585 132.329 190.552C130.968 189.301 128.968 188.284 127.145 187.936C126.018 187.721 124.424 188.031 124.262 189.43C124.109 190.752 125.465 191.42 126.553 191.583ZM125.255 190.37C123.799 188.542 126.553 188.384 127.379 188.571C127.909 188.695 128.434 188.881 128.94 189.077C130.004 189.482 130.987 190.031 132.004 190.537C131.097 190.623 130.205 190.79 129.302 190.91C128.224 191.053 126.057 191.377 125.255 190.37Z" fill="#263238"/>
<path d="M77.958 90.312C77.958 90.312 102.717 132.432 103.381 135.391C104.397 139.936 109.801 184.81 109.801 184.81L135.563 184.347C135.563 184.347 131.123 144.781 126.918 131.745C123.887 122.355 102.039 91.2142 102.039 91.2142L77.958 90.312Z" fill="#0071AA"/>
<path d="M133.22 180.399C129.52 180.37 116.408 180.222 111.487 180.685C111.448 180.69 111.448 180.752 111.487 180.757C113.181 181 129.525 180.623 133.22 180.504C133.291 180.499 133.286 180.399 133.22 180.399Z" fill="#263238"/>
<path d="M82.1827 94.1783C83.8056 96.7224 85.5192 99.2141 87.1756 101.739C88.8367 104.264 90.4883 106.789 92.1208 109.334C95.3809 114.412 98.56 119.544 101.677 124.708C103.138 127.129 104.531 129.577 105.539 132.217C106.531 134.833 107.209 137.558 107.71 140.303C108.216 143.067 108.546 145.859 108.861 148.652C109.195 151.625 109.524 154.594 109.858 157.568C110.536 163.649 111.214 169.731 111.897 175.812C111.978 176.556 112.064 177.306 112.135 178.05C112.145 178.16 111.949 178.179 111.935 178.07C111.176 172.027 110.546 165.969 109.858 159.917C109.515 156.905 109.171 153.893 108.832 150.881C108.512 148.079 108.212 145.277 107.777 142.489C107.352 139.754 106.794 137.028 105.963 134.379C105.095 131.611 103.858 129.014 102.403 126.498C99.4192 121.348 96.2592 116.288 93.0993 111.238C89.9107 106.145 86.6982 101.071 83.3617 96.0685C82.9512 95.4527 82.5359 94.837 82.1063 94.2308C82.0681 94.1735 82.154 94.1305 82.1827 94.1783Z" fill="#263238"/>
<path d="M86.0714 203.005C84.8972 202.934 54.5674 190.647 53.7225 189.482C53.6939 189.444 53.6796 189.368 53.6748 189.258C53.6796 188.217 55.7798 184.566 57.5364 179.773C57.6462 179.468 58.429 178.045 59.5174 176.127C62.5055 170.862 67.7896 161.845 67.7896 161.845L87.6132 169.721L78.1238 183.926L76.6489 187.363C76.6489 187.363 85.9521 196.976 86.7397 198.356C87.5177 199.731 87.2409 203.072 86.0714 203.005Z" fill="#EB9481"/>
<path d="M86.0714 203.005C84.8972 202.934 54.5674 190.647 53.7225 189.482C53.6939 189.444 53.6796 189.368 53.6748 189.258C53.6796 188.217 55.7798 184.566 57.5364 179.773C57.6462 179.468 58.429 178.045 59.5174 176.126L78.1238 183.921L76.6489 187.358C76.6489 187.358 85.9521 196.972 86.7397 198.351C87.5177 199.731 87.2409 203.072 86.0714 203.005Z" fill="white"/>
<path d="M86.0698 203.006C84.8956 202.939 54.5706 190.648 53.7257 189.483C53.4059 189.044 54.7615 184.901 57.5396 179.779L76.6472 187.368C76.6472 187.368 85.9505 196.977 86.7381 198.357C87.5161 199.731 87.2393 203.073 86.0698 203.006Z" fill="#A6A6A6"/>
<path d="M86.116 201.65C81.2043 199.54 61.1849 191.492 56.1681 189.783C56.1252 189.769 56.1156 189.797 56.1538 189.817C60.9796 192.012 81.0611 199.898 86.0826 201.736C86.1924 201.769 86.221 201.693 86.116 201.65Z" fill="#263238"/>
<path d="M85.2559 196.528C84.0959 196.008 82.726 196.108 81.8 196.552C80.9121 196.977 80.0052 197.712 79.6281 198.757C79.6186 198.786 79.6711 198.81 79.6902 198.781C80.7498 196.953 83.2033 195.955 85.232 196.59C85.275 196.604 85.294 196.547 85.2559 196.528Z" fill="#263238"/>
<path d="M78.3693 188.633C76.3932 187.807 73.8108 187.587 71.9253 188.719C71.8537 188.762 71.9158 188.867 71.9874 188.857C74.1545 188.652 76.1354 188.647 78.3073 188.89C78.46 188.91 78.5125 188.69 78.3693 188.633Z" fill="#263238"/>
<path d="M79.6633 189.845C77.6871 189.019 75.1047 188.8 73.2193 189.931C73.1477 189.974 73.2097 190.079 73.2813 190.069C75.4484 189.864 77.4293 189.859 79.6012 190.103C79.754 190.117 79.8065 189.902 79.6633 189.845Z" fill="#263238"/>
<path d="M80.9601 191.057C78.984 190.236 76.4016 190.012 74.5161 191.143C74.4445 191.186 74.5066 191.291 74.5782 191.282C76.7453 191.076 78.7262 191.072 80.8981 191.315C81.0461 191.329 81.0986 191.115 80.9601 191.057Z" fill="#263238"/>
<path d="M82.2551 192.27C80.2789 191.444 77.6965 191.225 75.8111 192.356C75.7395 192.399 75.8015 192.504 75.8731 192.494C78.0402 192.289 80.0211 192.284 82.193 192.528C82.341 192.542 82.3935 192.327 82.2551 192.27Z" fill="#263238"/>
<path d="M59.3195 185.573C57.0903 184.685 55.7061 188.151 57.94 189.038C60.1739 189.926 61.5534 186.461 59.3195 185.573Z" fill="#263238"/>
<path d="M82.6435 184.194C81.9704 182.957 80.3809 183.263 79.4119 183.883C77.8463 184.881 76.3713 186.571 75.5742 188.242C75.5551 188.284 75.5789 188.313 75.6124 188.323C75.598 188.48 75.7174 188.671 75.9035 188.628C77.7079 188.218 79.6936 187.998 81.3165 187.048C82.2664 186.485 83.2783 185.363 82.6435 184.194ZM78.5145 187.435C77.6315 187.659 76.7436 187.841 75.8653 188.094C76.6148 187.244 77.326 186.37 78.1661 185.597C78.567 185.23 78.9823 184.857 79.4262 184.547C80.1184 184.065 82.7342 183.187 82.0659 185.425C81.7031 186.666 79.5695 187.168 78.5145 187.435Z" fill="#263238"/>
<path d="M70.3419 186.996C71.9648 187.955 73.9457 188.175 75.7501 188.595C75.9362 188.638 76.0603 188.452 76.046 188.294C76.0794 188.285 76.1033 188.256 76.0842 188.213C75.2918 186.542 73.8216 184.848 72.256 183.845C71.2918 183.225 69.6975 182.915 69.0244 184.146C68.3848 185.311 69.392 186.437 70.3419 186.996ZM69.5972 185.382C68.9337 183.139 71.5495 184.027 72.2417 184.514C72.6856 184.824 73.1009 185.196 73.5018 185.569C74.3372 186.342 75.0436 187.22 75.793 188.07C74.9195 187.812 74.0317 187.631 73.1486 187.402C72.0937 187.129 69.96 186.619 69.5972 185.382Z" fill="#263238"/>
<path d="M79.6551 183.134L57.4639 174.174C57.4639 174.174 84.9774 133.725 85.1778 130.713C85.3592 128.045 73.2731 104.837 72.7958 98.0728C72.2803 90.7744 75.7982 85.1228 79.6599 81.6191L102.553 91.3472C102.553 91.3472 100.137 95.2136 96.3331 97.3616C96.3331 97.3616 108.071 124.188 107.407 132.436C106.734 140.732 79.6551 183.134 79.6551 183.134Z" fill="#0071AA"/>
<path d="M80.6393 178.914C77.4316 177.534 78.372 177.883 75.1452 176.542C73.5652 175.883 63.1976 171.573 61.6176 171.219C61.5842 171.21 61.5603 171.267 61.589 171.286C62.9684 172.131 73.4125 176.26 75.0068 176.89C78.2574 178.169 77.3362 177.768 80.6011 179.014C80.6632 179.028 80.7014 178.938 80.6393 178.914Z" fill="#263238"/>
<path d="M100.1 96.8702C97.7132 97.3809 95.3742 98.2258 93.126 99.1327C93.0401 99.1662 93.0783 99.2998 93.1737 99.2712C95.5127 98.5886 97.8945 97.949 100.191 97.1423C100.372 97.0802 100.281 96.832 100.1 96.8702Z" fill="#263238"/>
<path d="M97.3839 95.9294C97.1596 96.3208 96.9686 96.7361 96.7968 97.1561C96.6632 97.4807 96.4961 97.8292 96.4961 98.1824C96.4961 98.2492 96.5868 98.2683 96.6297 98.2253C96.8971 97.9628 97.0355 97.5809 97.2025 97.2564C97.3983 96.8793 97.5987 96.5022 97.7849 96.1203C97.909 95.8673 97.5224 95.6859 97.3839 95.9294Z" fill="#263238"/>
<path d="M97.6615 93.7765C97.8 93.4233 97.9432 93.0749 98.0911 92.7216C98.2439 92.3589 98.4205 92.0056 98.5494 91.6333C98.5685 91.576 98.6639 91.6142 98.6401 91.6715C98.5016 92.0247 98.4109 92.4018 98.2964 92.7646C98.1818 93.1274 98.0673 93.4901 97.9432 93.8529C97.7188 94.526 97.4467 95.1942 97.1556 95.8434C97.5279 95.8386 97.9145 95.8243 98.2534 95.6525C98.621 95.4663 98.8453 95.0749 99.0267 94.7217C99.2272 94.3255 99.4134 93.9245 99.6234 93.5331C99.8525 93.0987 100.105 92.6739 100.258 92.2061C100.277 92.1488 100.368 92.187 100.349 92.2443C100.005 93.2085 99.6663 94.1775 99.1269 95.0653C98.9169 95.4138 98.7451 95.7813 98.3584 95.915C97.9432 96.063 97.4849 96.0343 97.0506 96.0009C96.998 96.0152 96.9264 95.9818 96.9455 95.915C97.1556 95.2038 97.3847 94.4735 97.6615 93.7765Z" fill="#263238"/>
<path d="M96.6859 98.2354C97.4974 99.9586 98.2134 101.677 98.9771 103.395C99.7218 105.076 100.414 106.775 101.092 108.479C102.457 111.93 103.679 115.443 104.753 118.995C105.283 120.751 105.774 122.522 106.214 124.303C106.657 126.088 107.087 127.892 107.273 129.73C107.459 131.572 107.326 133.391 106.815 135.171C106.295 136.976 105.607 138.556 104.796 140.246C104.299 141.277 104.128 141.138 104.366 140.618C105.049 139.138 106.839 134.656 106.71 130.89C106.648 129.071 106.276 127.281 105.865 125.515C105.445 123.711 104.972 121.921 104.457 120.145C103.44 116.641 102.233 113.209 100.991 109.782C100.295 107.863 99.5499 105.963 98.8435 104.045C98.1323 102.116 97.3972 100.379 96.6096 98.2688C96.5809 98.2163 96.6621 98.1829 96.6859 98.2354Z" fill="#263238"/>
<path d="M79.8419 92.5408C80.2381 92.3928 80.7918 92.6362 81.1976 92.7031C81.7179 92.789 82.2429 92.8415 82.768 92.8606C83.2883 92.8797 83.8086 92.8558 84.3289 92.8081C84.8444 92.7603 85.3742 92.6935 85.8229 92.4119C86.5819 91.9393 87.212 91.1088 87.7275 90.388C88.2907 89.6004 88.8779 88.6935 89.212 87.7818C89.2311 87.7245 89.3122 87.7627 89.2979 87.8199C89.1309 88.3498 89.0067 88.8892 88.7919 89.4095C88.5915 89.8963 88.3337 90.3641 88.0616 90.8176C87.5509 91.6577 86.9638 92.5599 86.0855 93.0611C85.1642 93.5861 83.9804 93.5527 82.9494 93.4954C82.3575 93.462 81.7656 93.3809 81.1833 93.2615C80.7632 93.1709 80.0567 93.104 79.7894 92.7365C79.7369 92.6696 79.7656 92.5694 79.8419 92.5408Z" fill="#263238"/>
<path d="M63.798 169.945C67.4448 164.427 71.0248 158.861 74.538 153.257C78.0607 147.639 81.5214 141.978 84.9343 136.288C85.7506 134.928 86.6909 133.567 87.216 132.059C87.7888 130.421 87.4642 128.832 86.9439 127.228C85.994 124.288 84.815 121.429 83.5357 118.617C82.2565 115.796 80.877 113.023 79.5214 110.24C78.1753 107.481 76.7481 104.708 75.7266 101.805C74.7528 99.0321 74.3805 96.1585 75.1299 93.285C75.8698 90.4305 77.4736 87.872 79.149 85.4806C79.593 84.8505 80.0417 84.2252 80.4856 83.5951C80.519 83.5474 80.5906 83.6046 80.5572 83.6524C78.7099 86.1441 76.9104 88.7837 75.8268 91.7098C75.2922 93.1561 74.9437 94.6788 74.9103 96.2206C74.8769 97.7862 75.1681 99.3423 75.6311 100.836C76.5285 103.739 77.9462 106.488 79.2684 109.214C80.6192 112.001 82.0035 114.77 83.3066 117.581C84.6145 120.407 85.8413 123.281 86.8484 126.231C87.2971 127.543 87.7983 128.918 87.7649 130.326C87.7315 131.868 86.9964 133.257 86.2327 134.555C82.9152 140.216 79.4689 145.801 75.9843 151.357C72.4855 156.933 68.915 162.47 65.2873 167.964C64.829 168.656 64.3708 169.348 63.9126 170.04C63.8648 170.131 63.7407 170.031 63.798 169.945Z" fill="#263238"/>
<path d="M103.824 65.6191C105.891 70.1538 116.325 76.4021 121.213 77.0751C124.731 77.5572 135.409 77.7243 139.07 77.1658C143.362 76.5118 140.082 64.9317 137.548 65.2277C130.579 66.0439 124.66 66.9509 122.803 66.9509C120.531 66.9509 108.239 63.0033 106.755 62.4496C103.132 61.0892 102.655 63.0463 103.824 65.6191Z" fill="#EB9481"/>
<path d="M103.892 66.8172C106.508 70.6884 115.205 77.0178 115.205 77.0178L116.413 74.3447L120.408 65.5093C120.408 65.5093 112.422 62.989 107.167 61.8672C106.455 61.7145 105.83 61.6238 105.286 61.5999C101.925 61.4138 101.634 63.4902 103.892 66.8172Z" fill="#00AAFF"/>
<path d="M103.892 66.8175C106.508 70.6887 115.205 77.0181 115.205 77.0181L116.413 74.345C113.171 70.5789 108.164 64.8747 105.286 61.5955C101.925 61.4141 101.634 63.4905 103.892 66.8175Z" fill="#263238"/>
<path d="M113.634 75.2332C114.298 73.6102 117.248 67.0565 117.983 65.6817C118.035 65.5863 118.107 65.5958 118.064 65.7008C116.193 70.6126 114.427 73.6962 113.696 75.257C113.682 75.2905 113.615 75.2714 113.634 75.2332Z" fill="#263238"/>
<path d="M136.272 65.3522C140.516 64.7938 145.762 63.8439 150.201 65.7293C151.075 66.0969 151.39 66.7508 151.39 66.7508C153.394 67.5623 153.614 68.7509 153.614 68.7509C155.251 70.0778 155.309 71.3284 155.309 71.3284C155.309 71.3284 157.652 72.307 157.299 73.8201C156.908 75.5194 153.69 73.8154 151.347 73.9586C145.981 74.2879 138.444 76.2593 136.907 76.5123L136.272 65.3522Z" fill="#EB9481"/>
<path d="M145.481 70.3551C147.061 70.2883 148.612 70.1833 150.197 70.3312C151.934 70.4935 153.576 70.9422 155.257 71.3575C155.309 71.3718 155.333 71.3002 155.28 71.2764C152.35 70.0448 148.593 69.7203 145.476 70.2835C145.404 70.2978 145.404 70.3599 145.481 70.3551Z" fill="#263238"/>
<path d="M144.812 67.1477C146.354 67.1668 149.065 67.224 153.6 68.804C153.614 68.8088 153.628 68.7849 153.614 68.7801C150.807 67.3625 147.929 66.8565 144.817 67.0761C144.717 67.0808 144.707 67.1429 144.812 67.1477Z" fill="#263238"/>
<path d="M144.484 65.4141C147.104 65.5478 148.741 65.9678 151.376 66.7602C151.391 66.765 151.405 66.7411 151.386 66.7316C148.484 65.5144 147.295 65.4046 144.474 65.3234C144.379 65.3187 144.383 65.4093 144.484 65.4141Z" fill="#263238"/>
<path d="M144.907 74.7705C144.225 75.0903 144.387 75.4483 145.695 75.7538C147.012 76.0641 152.416 76.1452 152.225 78.0307C152.039 79.9257 144.392 79.6823 142.258 79.014C140.124 78.3505 136.907 76.5128 136.907 76.5128C138.406 76.2598 141.976 75.3003 144.907 74.7705Z" fill="#EB9481"/>
<path d="M109.501 72.8454C109.467 73.6616 109.386 74.4922 109.272 75.3132C109.281 75.2846 109.295 75.2559 109.305 75.2273C109.462 74.7977 109.62 74.3585 109.811 73.9433C109.82 73.9194 109.859 73.9289 109.854 73.9528C109.768 74.4015 109.61 74.855 109.439 75.2798C109.357 75.485 109.272 75.6855 109.186 75.886C109.128 76.2535 109.062 76.6163 108.985 76.9743C108.842 77.6569 108.198 80.5591 108.054 81.0507C108.026 81.1558 107.902 81.1319 107.906 81.0173C107.94 80.4827 108.484 77.4564 108.594 76.7738C108.804 75.4612 109.095 74.1199 109.443 72.8358C109.458 72.8024 109.505 72.8215 109.501 72.8454Z" fill="#263238"/>
<path d="M104.527 94.5496C103.252 95.2084 101.61 96.2251 94.2118 94.7644C93.7488 94.669 93.2858 94.5592 92.818 94.416C85.8823 92.33 77.5576 84.1724 77.0898 83.5996C77.0898 83.5996 88.1067 65.733 102.202 60.1148C103.945 59.4227 106.828 60.7592 108.427 62.4251C108.995 63.0218 110.236 67.4037 109.759 70.9551C109.281 74.5064 105.806 93.8957 104.527 94.5496Z" fill="#00AAFF"/>
<path d="M103.544 70.7969C103.582 71.1787 103.553 71.5558 103.506 71.9282C103.448 72.3005 103.377 72.668 103.234 73.026C103.191 72.6442 103.224 72.2671 103.272 71.8947C103.324 71.5224 103.396 71.1549 103.544 70.7969Z" fill="white"/>
<path d="M98.7354 82.9644C98.7735 83.3462 98.7449 83.7233 98.6972 84.0956C98.6399 84.468 98.5683 84.8355 98.4251 85.1935C98.3821 84.8116 98.4155 84.4345 98.4633 84.0622C98.5206 83.6899 98.5922 83.3224 98.7354 82.9644Z" fill="white"/>
<path d="M90.5703 73.7661C90.6085 74.148 90.5799 74.5251 90.5321 74.8974C90.4749 75.2697 90.4032 75.6373 90.26 75.9953C90.2171 75.6134 90.2505 75.2363 90.2982 74.864C90.3507 74.4917 90.4271 74.1241 90.5703 73.7661Z" fill="white"/>
<path d="M106.689 82.3438C106.728 82.7256 106.699 83.1027 106.651 83.475C106.594 83.8474 106.522 84.2149 106.379 84.5729C106.336 84.191 106.37 83.8139 106.417 83.4416C106.475 83.0693 106.546 82.7018 106.689 82.3438Z" fill="white"/>
<path d="M96.2031 72.1915C96.585 72.1533 96.9621 72.182 97.3344 72.2297C97.7067 72.287 98.0743 72.3586 98.4323 72.5018C98.0504 72.5447 97.6733 72.5113 97.301 72.4636C96.9287 72.4063 96.5611 72.3347 96.2031 72.1915Z" fill="white"/>
<path d="M86.9326 80.9791C87.3145 80.9409 87.6916 80.9696 88.0639 81.0173C88.4362 81.0746 88.8038 81.1462 89.1618 81.2894C88.7799 81.3324 88.4028 81.2989 88.0305 81.2512C87.6582 81.1987 87.2906 81.1223 86.9326 80.9791Z" fill="white"/>
<path d="M97.8359 90.4923C98.2178 90.4541 98.5949 90.4828 98.9672 90.5305C99.3395 90.5878 99.7071 90.6594 100.065 90.8026C99.6832 90.8455 99.3061 90.8121 98.9338 90.7644C98.5615 90.7119 98.1939 90.6403 97.8359 90.4923Z" fill="white"/>
<path d="M84.0723 87.0363C84.4541 86.9981 84.8312 87.0267 85.2035 87.0744C85.5759 87.1317 85.9434 87.2033 86.3014 87.3465C85.9195 87.3895 85.5424 87.3561 85.1701 87.3083C84.7978 87.2558 84.4303 87.1795 84.0723 87.0363Z" fill="white"/>
<path d="M103.473 62.2433C103.855 62.2051 104.232 62.2337 104.604 62.2815C104.976 62.3387 105.344 62.4104 105.702 62.5536C105.32 62.5965 104.943 62.5631 104.571 62.5154C104.198 62.4629 103.831 62.3865 103.473 62.2433Z" fill="white"/>
<path d="M100.776 65.2891C100.533 65.5898 100.246 65.8332 99.9504 66.0623C99.6497 66.2867 99.3394 66.4919 98.9814 66.6447C99.2249 66.344 99.5113 66.1005 99.8072 65.8714C100.113 65.6518 100.423 65.4418 100.776 65.2891Z" fill="white"/>
<path d="M86.079 73.9434C85.8355 74.2441 85.5491 74.4875 85.2532 74.7166C84.9524 74.941 84.6422 75.1462 84.2842 75.299C84.5276 74.9983 84.814 74.7548 85.11 74.5257C85.4107 74.3014 85.7257 74.0913 86.079 73.9434Z" fill="white"/>
<path d="M104.432 77.8481C104.189 78.1489 103.903 78.3923 103.607 78.6214C103.306 78.8458 102.996 79.051 102.638 79.2038C102.881 78.903 103.168 78.6596 103.463 78.4305C103.764 78.2109 104.074 78.0009 104.432 77.8481Z" fill="white"/>
<path d="M92.5467 85.332C92.3033 85.6328 92.0169 85.8762 91.7209 86.1053C91.4202 86.3297 91.11 86.5349 90.752 86.6877C90.9954 86.3869 91.2818 86.1435 91.5777 85.9144C91.8785 85.6948 92.1887 85.4848 92.5467 85.332Z" fill="white"/>
<path d="M108.984 67.6226C108.741 67.9233 108.454 68.1667 108.158 68.3958C107.858 68.6202 107.547 68.8254 107.189 68.9782C107.433 68.6775 107.719 68.434 108.015 68.2049C108.316 67.9806 108.626 67.7753 108.984 67.6226Z" fill="white"/>
<path d="M108.737 76.2957C108.437 76.0523 108.193 75.7659 107.964 75.47C107.74 75.1692 107.535 74.859 107.382 74.501C107.683 74.7444 107.926 75.0308 108.155 75.3268C108.375 75.6323 108.585 75.9425 108.737 76.2957Z" fill="white"/>
<path d="M82.2453 82.2728C81.9446 82.0294 81.7011 81.743 81.472 81.447C81.2476 81.1463 81.0424 80.836 80.8896 80.478C81.1904 80.7215 81.4338 81.0079 81.6629 81.3038C81.8873 81.6045 82.0925 81.9148 82.2453 82.2728Z" fill="white"/>
<path d="M105.514 89.3792C105.213 89.1358 104.97 88.8494 104.741 88.5535C104.516 88.2527 104.311 87.9425 104.158 87.5845C104.459 87.8279 104.702 88.1143 104.931 88.4103C105.156 88.7158 105.361 89.026 105.514 89.3792Z" fill="white"/>
<path d="M93.8546 69.1175C93.5539 68.8741 93.3105 68.5877 93.0814 68.2917C92.857 67.991 92.6518 67.6808 92.499 67.3228C92.7997 67.5662 93.0432 67.8526 93.2723 68.1485C93.4919 68.454 93.7019 68.7643 93.8546 69.1175Z" fill="white"/>
<path d="M94.0587 93.4281C93.758 93.1846 93.5146 92.8982 93.2855 92.6023C93.0611 92.3016 92.8559 91.9913 92.7031 91.6333C93.0038 91.8767 93.2473 92.1631 93.4764 92.4591C93.7007 92.7646 93.906 93.0748 94.0587 93.4281Z" fill="white"/>
<path d="M96.0412 79.0882C95.7405 78.8448 95.497 78.5584 95.2679 78.2625C95.0435 77.9617 94.8383 77.6515 94.6855 77.2935C94.9863 77.5369 95.2297 77.8233 95.4588 78.1192C95.6832 78.42 95.8932 78.735 96.0412 79.0882Z" fill="white"/>
<path d="M105.838 67.1851C104.043 66.8509 102.349 63.1325 102.134 60.6313C102.12 60.4594 102.974 59.099 103.934 57.395C104.511 56.3592 105.132 55.1897 105.619 54.087C105.719 53.8579 106.306 54.6169 106.306 54.6169L107.585 55.5954L111.81 58.8365C111.81 58.8365 110.101 60.8556 109.261 62.7888C109.194 62.9511 109.141 63.1086 109.108 63.2662C109.103 63.29 109.098 63.3139 109.084 63.3473C108.855 64.2638 107.571 67.5049 105.838 67.1851Z" fill="#EB9481"/>
<path d="M109.119 63.2611C109.114 63.285 109.109 63.3088 109.095 63.3423C108.866 63.2754 108.622 63.1847 108.365 63.0654C103.739 60.8983 105.777 54.6978 105.777 54.6978L107.586 55.5951L111.811 58.8362C111.811 58.8362 110.102 60.8554 109.262 62.7886C109.2 62.9461 109.152 63.1036 109.119 63.2611Z" fill="#263238"/>
<path d="M116.67 45.6235C116.67 45.6235 118.785 46.9648 118.799 49.3515C118.813 51.7382 117.863 54.0723 117.644 54.1535C117.424 54.2346 116.67 45.6235 116.67 45.6235Z" fill="#263238"/>
<path d="M106.179 46.8644C104.909 49.3752 104.971 57.2703 106.561 59.3037C108.861 62.2536 113.291 63.2703 115.969 60.3538C118.561 57.528 118.298 47.2367 116.461 45.3178C113.759 42.492 108.059 43.1555 106.179 46.8644Z" fill="#EB9481"/>
<path d="M112.919 53.1895C112.914 53.1704 112.876 53.2181 112.88 53.2372C112.909 53.7766 112.852 54.3971 112.37 54.5881C112.355 54.5928 112.355 54.6215 112.374 54.6167C112.966 54.5212 113.033 53.6955 112.919 53.1895Z" fill="#263238"/>
<path d="M112.427 52.6401C111.559 52.5924 111.535 54.3347 112.337 54.3728C113.124 54.4158 113.153 52.6783 112.427 52.6401Z" fill="#263238"/>
<path d="M115.862 53.1708C115.867 53.1517 115.905 53.1946 115.905 53.2185C115.881 53.7579 115.939 54.3784 116.426 54.5646C116.44 54.5694 116.44 54.598 116.421 54.5932C115.824 54.5025 115.753 53.6767 115.862 53.1708Z" fill="#263238"/>
<path d="M116.355 52.6164C117.224 52.5639 117.262 54.3014 116.46 54.3491C115.668 54.3969 115.629 52.6594 116.355 52.6164Z" fill="#263238"/>
<path d="M111.882 51.3183C112.121 51.261 112.331 51.1703 112.56 51.094C112.818 51.0033 113.033 50.9603 113.205 50.7312C113.295 50.6071 113.262 50.3875 113.152 50.2873C112.894 50.0534 112.551 50.082 112.236 50.1775C111.892 50.2825 111.653 50.4496 111.453 50.7455C111.262 51.0271 111.567 51.3899 111.882 51.3183Z" fill="#263238"/>
<path d="M116.957 52.0863C116.718 52.0434 116.503 51.9622 116.269 51.8954C116.007 51.819 115.787 51.7856 115.606 51.566C115.506 51.4467 115.53 51.2271 115.635 51.1173C115.878 50.8691 116.222 50.8835 116.546 50.9598C116.895 51.0457 117.138 51.1985 117.358 51.4849C117.563 51.7665 117.272 52.1436 116.957 52.0863Z" fill="#263238"/>
<path d="M111.691 58.2918C111.82 58.4207 111.944 58.5973 112.139 58.6164C112.326 58.6355 112.545 58.5543 112.722 58.4923C112.741 58.4875 112.755 58.5066 112.746 58.5209C112.602 58.7261 112.306 58.8503 112.058 58.8025C111.815 58.7548 111.7 58.5448 111.643 58.3204C111.633 58.2822 111.676 58.2727 111.691 58.2918Z" fill="#263238"/>
<path d="M114.818 55.9912C114.818 55.9912 114.842 56.7979 114.799 57.1702C114.795 57.2037 113.74 56.9984 112.604 57.2466C112.432 57.2848 112.451 57.1464 112.647 57.0557C113.043 56.8743 113.539 56.7025 114.513 56.8075C114.551 56.7072 114.456 55.5664 114.513 55.5712C114.718 55.576 115.11 55.7573 115.344 55.8576C115.344 54.1774 115.076 52.5115 115.1 50.8408C115.1 50.7835 115.191 50.774 115.2 50.8265C115.606 52.5544 115.644 54.4876 115.692 56.2204C115.702 56.4352 114.962 56.0676 114.818 55.9912Z" fill="#263238"/>
<path d="M113.743 56.8844C113.743 56.8844 113.366 57.8296 112.741 58.0826C112.02 58.3737 111.772 57.7198 112.507 57.1422C112.899 56.8415 113.743 56.8844 113.743 56.8844Z" fill="#263238"/>
<path d="M112.994 57.9348C112.913 57.9969 112.832 58.0494 112.741 58.0828C112.078 58.3501 111.815 57.8203 112.35 57.2856C112.712 57.3143 113.109 57.4479 112.994 57.9348Z" fill="#FF99BA"/>
<path d="M105.815 53.619C106.689 53.8863 107.691 51.261 107.978 50.2538C108.226 49.366 108.517 46.5449 108.56 46.3492C108.603 46.1583 112.364 48.8457 114.565 48.2013C116.765 47.5569 118.236 45.5855 118.264 44.6642C118.293 43.743 115.562 41.404 113.2 41.2847C110.837 41.1654 107.639 44.1678 107.639 44.1678C107.639 44.1678 108.727 42.8695 108.689 42.7644C108.651 42.6594 107.123 43.2704 106.842 44.354C106.842 44.354 107.142 42.9888 107.028 42.9649C106.913 42.9411 105.725 44.1105 105.992 44.9936C105.992 44.9936 104.617 46.1822 104.493 47.4853C104.364 48.7932 104.789 53.304 105.815 53.619Z" fill="#263238"/>
<path d="M116.126 47.7426C115.458 48.0481 114.785 48.387 114.05 48.4873C113.252 48.5923 112.422 48.3918 111.677 48.1054C110.918 47.8142 110.226 47.3894 109.596 46.8739C109.047 46.4204 108.556 45.8763 107.968 45.4705C107.82 45.3703 107.653 45.5803 107.739 45.7187C108.632 47.0553 110.212 48.177 111.73 48.6591C113.329 49.1651 114.837 48.8119 116.131 47.7617C116.14 47.757 116.136 47.7379 116.126 47.7426Z" fill="#263238"/>
<path d="M106.727 53.3843C106.727 53.3843 105.371 50.6349 104.149 51.0788C102.927 51.5227 103.681 55.327 104.927 56.0192C106.173 56.7161 106.841 55.5753 106.841 55.5753L106.727 53.3843Z" fill="#EB9481"/>
<path d="M104.392 52.1626C104.373 52.1579 104.364 52.1865 104.378 52.1961C105.247 52.7163 105.605 53.6519 105.81 54.5923C105.586 54.2056 105.242 53.9622 104.731 54.2199C104.703 54.2343 104.722 54.2772 104.75 54.2725C105.142 54.2486 105.409 54.3584 105.614 54.7021C105.762 54.9455 105.843 55.2367 105.939 55.504C105.968 55.5947 106.125 55.5708 106.111 55.4706C106.111 55.461 106.106 55.4562 106.106 55.4467C106.311 54.2772 105.643 52.4777 104.392 52.1626Z" fill="#263238"/>
<path d="M97.7777 65.6625C96.8421 71.0706 102.685 89.2905 106.441 92.6938C112.031 97.7536 122.365 101.081 126.112 102.164C127.745 102.637 132.26 91.1521 130.609 90.3931C127.072 88.7749 116.083 85.3477 115.048 84.4646C114.012 83.5863 107.697 74.4979 104.89 69.2615C101.129 62.2304 98.2503 62.9273 97.7777 65.6625Z" fill="#EB9481"/>
<path d="M127.826 89.3813C127.826 89.3813 132.699 90.6224 135.85 91.5866C137.606 92.1212 140.537 93.3146 141.649 94.2979C143.31 95.7728 149.315 102.99 147.597 104.484C146.041 105.835 141.668 98.9758 141.668 98.9758C141.668 98.9758 146.69 105.506 144.518 106.79C142.346 108.074 138.437 99.6679 138.437 99.6679C138.437 99.6679 143.449 106.494 140.995 107.463C139.143 108.193 135.172 100.78 135.172 100.78C135.172 100.78 139.439 106.675 137.568 107.51C135.501 108.432 131.406 101.821 131.406 101.821C126.289 103.143 123.315 101.677 121.32 100.384C120.838 100.078 127.826 89.3813 127.826 89.3813Z" fill="#EB9481"/>
<path d="M140.073 96.6085C140.688 97.3531 141.318 98.1073 141.872 98.9045C142.421 99.7016 142.941 100.523 143.414 101.368C144.574 103.444 144.975 104.924 144.941 104.833C144.12 102.733 142.197 99.8448 141.648 99.0477C141.099 98.2505 140.593 97.4247 140.044 96.6276C140.03 96.6085 140.058 96.5894 140.073 96.6085Z" fill="#263238"/>
<path d="M137.156 98.5416C138.216 99.3817 140.435 102.508 141.295 104.599C141.333 104.685 141.285 104.68 141.233 104.599C140.56 103.563 137.853 99.5535 137.132 98.5559C137.118 98.5416 137.142 98.5273 137.156 98.5416Z" fill="#263238"/>
<path d="M134.354 99.7493C135.581 100.962 136.608 102.618 137.419 104.532C137.457 104.618 137.386 104.604 137.338 104.523C136.35 102.914 135.586 101.644 134.307 99.7874C134.283 99.7636 134.326 99.7206 134.354 99.7493Z" fill="#263238"/>
<path d="M103.091 66.0587C98.7328 59.8963 96.1266 62.1779 97.0001 68.8702C97.8163 75.128 100.012 82.5839 100.012 82.5839L111.01 77.2569C111.01 77.2569 105.878 70.0062 103.091 66.0587Z" fill="#00AAFF"/>
<path d="M105.755 68.4829C105.913 68.8361 105.994 69.1989 106.065 69.5712C106.127 69.9388 106.17 70.3159 106.142 70.6977C105.984 70.3445 105.898 69.9817 105.832 69.6094C105.769 69.2419 105.727 68.8648 105.755 68.4829Z" fill="white"/>
<path d="M99.249 72.2297C99.6023 72.0722 99.9698 71.991 100.337 71.9194C100.705 71.8574 101.082 71.8144 101.464 71.8431C101.111 72.0006 100.748 72.0865 100.376 72.1533C100.003 72.2154 99.6309 72.2583 99.249 72.2297Z" fill="white"/>
<path d="M99.5309 62.645C99.3924 63.003 99.192 63.3228 98.9819 63.6331C98.7624 63.9386 98.5285 64.2298 98.2373 64.4827C98.3757 64.1247 98.5762 63.8049 98.7862 63.4947C99.0058 63.1892 99.2397 62.898 99.5309 62.645Z" fill="white"/>
<path d="M108.809 75.1079C108.671 75.4659 108.47 75.7857 108.26 76.096C108.041 76.4015 107.807 76.6927 107.516 76.9456C107.654 76.5876 107.855 76.2678 108.065 75.9576C108.284 75.6568 108.518 75.3609 108.809 75.1079Z" fill="white"/>
<path d="M101.202 78.8458C100.844 78.7074 100.524 78.5069 100.214 78.2969C99.9084 78.0773 99.6172 77.8434 99.3643 77.5522C99.7223 77.6907 100.042 77.8911 100.352 78.1012C100.658 78.3207 100.949 78.5546 101.202 78.8458Z" fill="white"/>
<path d="M104.552 67.9149C105.139 68.7216 105.745 69.5092 106.347 70.3016C106.194 69.9006 106.06 69.4997 105.941 69.0844C105.936 69.0653 105.965 69.0557 105.969 69.0748C106.094 69.3899 106.227 69.7049 106.347 70.02C106.404 70.1727 106.461 70.3254 106.518 70.4782C106.533 70.5116 106.542 70.545 106.557 70.5784C107.029 71.1942 107.497 71.8147 107.946 72.4448C108.485 73.1942 109.005 73.9627 109.53 74.7265C110.07 75.5141 110.585 76.4401 111.153 77.2086C111.201 77.2754 110.18 77.6859 110.084 77.7432C109.989 77.7957 109.922 77.705 110.022 77.6716C110.117 77.643 110.929 77.1465 110.938 77.137C110.413 76.3685 109.807 75.6573 109.258 74.9031C108.714 74.1537 108.165 73.409 107.635 72.6453C106.561 71.0987 105.573 69.4949 104.509 67.9436C104.509 67.9149 104.537 67.8958 104.552 67.9149Z" fill="#263238"/>
<path d="M97.2726 73.2999C97.4397 73.6245 97.6211 73.9491 97.7691 74.2832C97.8311 74.4217 97.8884 74.5601 97.9505 74.6985C97.6975 73.5052 97.454 72.3166 97.2106 71.1233C97.2058 71.109 97.2297 71.1042 97.2345 71.1185C97.7404 73.0517 98.2464 74.9801 98.7142 76.9229C99.1629 78.7749 99.6975 80.6461 99.9553 82.5363C100.108 82.4838 100.962 82.1306 100.986 82.1879C101.01 82.2451 99.8693 82.7845 99.8502 82.7368C99.2297 80.8943 98.8431 78.794 98.4182 76.899C98.2989 76.3644 98.1891 75.8298 98.0746 75.2904C97.9505 74.9658 97.8025 74.6555 97.6545 74.3453C97.497 74.0111 97.3729 73.6675 97.2392 73.3238C97.2297 73.2951 97.2631 73.2761 97.2726 73.2999Z" fill="#263238"/>
<path d="M100.189 80.7414C101.716 79.8774 108.098 76.5743 109.53 75.9537C109.63 75.9108 109.683 75.9633 109.583 76.0206C105.067 78.7127 101.769 80.0302 100.227 80.8034C100.184 80.8178 100.146 80.7653 100.189 80.7414Z" fill="#263238"/>
<path d="M275.096 206.231H129.662L150.689 86.9697H296.123L275.096 206.231Z" fill="#80D4FF"/>
<path d="M200.465 74.6162H152.87L150.688 86.9696H201.625L200.465 74.6162Z" fill="#80D4FF"/>
<g opacity="0.1">
<path d="M275.096 206.231H129.662L150.689 86.9697H296.123L275.096 206.231Z" fill="#00AAFF"/>
<path d="M200.465 74.6162H152.87L150.688 86.9696H201.625L200.465 74.6162Z" fill="black"/>
</g>
<path d="M147.734 79.6567C147.548 78.9646 147.505 78.2724 147.495 77.5803C147.5 76.8882 147.543 76.196 147.734 75.5039C147.925 76.196 147.968 76.8882 147.972 77.5803C147.963 78.2724 147.92 78.9646 147.734 79.6567Z" fill="#263238"/>
<path d="M143.504 80.8784C142.993 80.3724 142.612 79.7948 142.258 79.1982C141.919 78.5967 141.609 77.9762 141.428 77.2793C141.938 77.7853 142.32 78.3628 142.674 78.9595C143.008 79.5657 143.318 80.1863 143.504 80.8784Z" fill="#263238"/>
<path d="M140.451 84.053C139.759 83.8716 139.138 83.5613 138.532 83.2224C137.935 82.8692 137.358 82.4873 136.852 81.9766C137.544 82.1579 138.164 82.4682 138.77 82.8071C139.367 83.1603 139.945 83.547 140.451 84.053Z" fill="#263238"/>
<path d="M139.395 88.3295C138.703 88.5156 138.011 88.5586 137.319 88.5682C136.626 88.5634 135.934 88.5204 135.242 88.3295C135.934 88.1386 136.626 88.0956 137.319 88.0908C138.011 88.0956 138.703 88.1386 139.395 88.3295Z" fill="#263238"/>
<path d="M140.622 92.5586C140.116 93.0693 139.538 93.4512 138.941 93.8044C138.34 94.1433 137.719 94.4536 137.022 94.635C137.528 94.1242 138.106 93.7424 138.703 93.3891C139.304 93.0502 139.925 92.74 140.622 92.5586Z" fill="#263238"/>
<path d="M143.792 95.6094C143.611 96.3015 143.301 96.922 142.962 97.5283C142.608 98.1249 142.227 98.7025 141.716 99.2085C141.897 98.5163 142.207 97.8958 142.546 97.2896C142.904 96.6929 143.286 96.1153 143.792 95.6094Z" fill="#263238"/>
<path d="M148.069 96.6646C148.255 97.3567 148.298 98.0488 148.307 98.741C148.303 99.4331 148.26 100.125 148.069 100.817C147.878 100.125 147.835 99.4331 147.83 98.741C147.84 98.0488 147.878 97.3567 148.069 96.6646Z" fill="#263238"/>
<path d="M152.298 95.4424C152.809 95.9484 153.19 96.5259 153.544 97.1226C153.883 97.724 154.193 98.3446 154.374 99.0415C153.864 98.5355 153.482 97.9579 153.128 97.3613C152.79 96.7551 152.479 96.1345 152.298 95.4424Z" fill="#263238"/>
<path d="M155.347 92.2681C156.039 92.4495 156.659 92.7597 157.266 93.0986C157.862 93.4518 158.44 93.8337 158.946 94.3445C158.254 94.1631 157.633 93.8528 157.027 93.5139C156.43 93.1607 155.853 92.7788 155.347 92.2681Z" fill="#263238"/>
<path d="M156.402 87.9911C157.094 87.8049 157.787 87.762 158.479 87.7524C159.171 87.7572 159.863 87.8002 160.555 87.9911C159.863 88.182 159.171 88.225 158.479 88.2298C157.787 88.225 157.094 88.182 156.402 87.9911Z" fill="#263238"/>
<path d="M155.18 83.7619C155.686 83.2512 156.263 82.8693 156.86 82.5161C157.461 82.1772 158.082 81.8669 158.779 81.6855C158.273 82.1963 157.695 82.5782 157.099 82.9314C156.492 83.2703 155.872 83.5806 155.18 83.7619Z" fill="#263238"/>
<path d="M152.005 80.7114C152.186 80.0193 152.497 79.3987 152.835 78.7925C153.189 78.1959 153.571 77.6183 154.081 77.1123C153.9 77.8044 153.59 78.425 153.251 79.0312C152.897 79.6279 152.516 80.2054 152.005 80.7114Z" fill="#263238"/>
<path d="M274.882 206.231H129.133L108.44 91.2988H254.189L274.882 206.231Z" fill="#00AAFF"/>
<path d="M158.947 161.558C162.292 161.558 165.004 158.846 165.004 155.5C165.004 152.155 162.292 149.443 158.947 149.443C155.602 149.443 152.89 152.155 152.89 155.5C152.89 158.846 155.602 161.558 158.947 161.558Z" fill="#263238"/>
<path d="M206.832 161.558C210.177 161.558 212.889 158.846 212.889 155.5C212.889 152.155 210.177 149.443 206.832 149.443C203.486 149.443 200.774 152.155 200.774 155.5C200.774 158.846 203.486 161.558 206.832 161.558Z" fill="#263238"/>
<path d="M191.592 162.526L191.258 161.891C191.229 161.834 188.098 156.049 181.802 156.049C176.06 156.049 174.661 161.495 174.604 161.729L174.432 162.421L173.043 162.087L173.21 161.39C173.224 161.323 174.914 154.617 181.802 154.617C188.981 154.617 192.385 160.956 192.528 161.228L192.862 161.863L191.592 162.526Z" fill="#263238"/>
<path d="M265.21 154.803C265.52 154.736 265.831 154.665 266.141 154.583" stroke="#263238" stroke-width="0.477333" stroke-miterlimit="10"/>
<path d="M267.97 154.045C275.273 151.577 281.388 145.835 281.96 139.124C283.23 124.326 265.206 116.154 267.068 99.0515C268.843 82.741 285.951 81.5763 292.81 83.8293C300.386 86.321 297.789 93.6003 290.93 92.66C279.039 91.0323 271.564 78.1061 277.211 63.4424C281.431 52.4876 291.946 48.3539 296.218 47.0938" stroke="#00AAFF" stroke-width="0.477333" stroke-miterlimit="10" stroke-dasharray="1.91 1.91"/>
<path d="M297.147 46.8452C297.739 46.6924 298.073 46.6304 298.073 46.6304" stroke="#263238" stroke-width="0.477333" stroke-miterlimit="10"/>
<path d="M305.645 43.9907C304.428 40.2198 296.275 41.5754 297.865 46.5015C299.459 51.4324 306.863 47.7665 305.645 43.9907Z" fill="#005580"/>
<path d="M293.001 42.4846C293.063 40.8283 295.364 39.5585 298.62 40.1457C301.875 40.7328 304.939 42.9237 304.939 42.9237C304.939 42.9237 301.722 44.8904 298.433 45.2388C295.145 45.5825 292.939 44.1457 293.001 42.4846Z" fill="#AAE3FF"/>
<path d="M305.362 42.9107C303.672 42.9202 301.987 42.8677 300.297 42.8152C298.612 42.7436 296.922 42.6768 295.242 42.5384C296.932 42.524 298.617 42.5813 300.307 42.6338C301.992 42.7054 303.681 42.7723 305.362 42.9107Z" fill="#00AAFF"/>
<path d="M296.698 41.0068C297.185 41.2264 297.639 41.5033 298.092 41.7753C298.536 42.0665 298.985 42.3529 299.395 42.6966C298.908 42.477 298.455 42.2002 298.001 41.9281C297.557 41.6369 297.109 41.3505 296.698 41.0068Z" fill="#00AAFF"/>
<path d="M301.124 42.7534C300.695 43.1162 300.232 43.4217 299.768 43.732C299.296 44.0231 298.823 44.3191 298.317 44.5577C298.747 44.195 299.21 43.8895 299.673 43.5792C300.146 43.288 300.618 42.9921 301.124 42.7534Z" fill="#00AAFF"/>
<path d="M301.614 41.8232C301.867 41.933 302.077 42.0953 302.287 42.2528C302.488 42.4247 302.688 42.5965 302.851 42.8209C302.598 42.7111 302.388 42.5488 302.178 42.3913C301.977 42.2147 301.772 42.0476 301.614 41.8232Z" fill="#00AAFF"/>
<path d="M296.103 52.3045C297.12 53.6124 299.731 53.2973 302.027 50.9202C304.322 48.5431 305.525 44.9727 305.525 44.9727C305.525 44.9727 301.764 45.2591 298.895 46.9011C296.026 48.5383 295.081 50.9918 296.103 52.3045Z" fill="#AAE3FF"/>
<path d="M305.954 44.9546C304.575 45.9331 303.243 46.9642 301.902 47.9952C300.575 49.0406 299.248 50.0811 297.959 51.1742C299.338 50.1957 300.67 49.1647 302.012 48.1336C303.339 47.093 304.67 46.0525 305.954 44.9546Z" fill="#00AAFF"/>
<path d="M300.04 51.5661C300.307 51.1031 300.513 50.6115 300.723 50.1246C300.914 49.6282 301.109 49.1365 301.238 48.6162C300.971 49.0792 300.766 49.5709 300.556 50.0578C300.365 50.5542 300.174 51.0506 300.04 51.5661Z" fill="#00AAFF"/>
<path d="M302.603 47.5612C302.045 47.5182 301.486 47.5421 300.933 47.5612C300.379 47.5994 299.82 47.6328 299.271 47.7378C299.83 47.7808 300.388 47.7569 300.942 47.7378C301.501 47.6996 302.054 47.6662 302.603 47.5612Z" fill="#00AAFF"/>
<path d="M303.549 48.0338C303.692 47.7999 303.764 47.5469 303.845 47.2939C303.907 47.0362 303.969 46.7784 303.969 46.5063C303.826 46.7402 303.754 46.9932 303.673 47.2462C303.611 47.4992 303.549 47.757 303.549 48.0338Z" fill="#00AAFF"/>
<path d="M305.646 43.9907C304.896 44.2341 304.089 43.8188 303.846 43.0694C303.603 42.32 304.018 41.5133 304.767 41.2699C305.517 41.0264 306.323 41.4417 306.567 42.1911C306.81 42.9453 306.395 43.752 305.646 43.9907Z" fill="#00AAFF"/>
<path d="M306.524 46.7163C305.774 46.9597 304.967 46.5444 304.724 45.795C304.481 45.0456 304.896 44.2389 305.645 43.9955C306.395 43.752 307.201 44.1673 307.445 44.9167C307.688 45.6661 307.273 46.4728 306.524 46.7163Z" fill="#00AAFF"/>
<path d="M150.03 45.499C149.347 52.0337 143.49 56.7783 136.96 56.0958C134.321 55.8189 131.972 54.6972 130.154 53.0265L124.201 53.9L127.18 48.7544C126.459 46.9978 126.153 45.0407 126.363 43.0264C127.046 36.4917 132.903 31.747 139.433 32.4296C145.968 33.1122 150.717 38.9643 150.03 45.499Z" fill="white"/>
<path d="M150.029 45.499C149.781 47.6708 148.989 49.7997 147.628 51.5277C147.318 51.9812 146.912 52.3583 146.55 52.7688C146.134 53.1268 145.752 53.5229 145.294 53.8332C144.425 54.5015 143.447 55.0265 142.425 55.4323C141.409 55.8619 140.316 56.0624 139.222 56.196C138.674 56.2247 138.12 56.2772 137.571 56.2294C137.017 56.2151 136.468 56.1578 135.924 56.0576C133.747 55.6614 131.685 54.6447 130.039 53.1506L130.177 53.1936L124.229 54.1053L123.8 54.1721L124.019 53.7903L126.979 48.635L126.965 48.8403C125.523 45.4465 125.848 41.3987 127.7 38.2387C128.621 36.654 129.91 35.2888 131.428 34.2721C132.946 33.2506 134.702 32.611 136.506 32.3675C138.311 32.1289 140.163 32.2912 141.886 32.864C143.604 33.4415 145.184 34.4153 146.473 35.6754C149.098 38.1719 150.416 41.919 150.029 45.499ZM150.029 45.499C150.392 41.9142 149.046 38.191 146.416 35.728C145.113 34.4964 143.533 33.5609 141.829 33.0215C140.12 32.4869 138.296 32.358 136.535 32.6253C134.778 32.8974 133.074 33.5513 131.623 34.568C130.172 35.5895 128.95 36.9213 128.062 38.4488C127.16 39.9762 126.692 41.728 126.554 43.4846C126.444 45.246 126.731 47.0312 127.389 48.6685L127.432 48.7735L127.375 48.8689L124.377 54.005L124.163 53.69L130.12 52.8547L130.201 52.8451L130.258 52.9024C131.833 54.3821 133.824 55.4132 135.953 55.838C136.483 55.943 137.022 56.0146 137.566 56.0337C138.11 56.091 138.65 56.0528 139.194 56.0289C140.273 55.9192 141.356 55.7378 142.373 55.3273C143.39 54.9454 144.378 54.4442 145.242 53.7807C145.7 53.48 146.082 53.0886 146.497 52.7306C146.865 52.3248 147.266 51.9525 147.581 51.5038C148.96 49.7902 149.767 47.6708 150.029 45.499Z" fill="#00AAFF"/>
<path d="M132.382 49.8089C132.382 49.0977 132.873 48.5869 133.547 48.5869C134.258 48.5869 134.711 49.0977 134.711 49.8089C134.711 50.501 134.258 51.0309 133.547 51.0309C132.854 51.0309 132.382 50.501 132.382 49.8089ZM132.873 46.9879L132.597 37.5176H134.492L134.215 46.9879H132.873Z" fill="#00AAFF"/>
<path d="M136.921 49.8089C136.921 49.0977 137.413 48.5869 138.086 48.5869C138.797 48.5869 139.25 49.0977 139.25 49.8089C139.25 50.501 138.797 51.0309 138.086 51.0309C137.393 51.0309 136.921 50.501 136.921 49.8089ZM137.413 46.9879L137.136 37.5176H139.031L138.754 46.9879H137.413Z" fill="#00AAFF"/>
<path d="M141.455 49.8089C141.455 49.0977 141.947 48.5869 142.62 48.5869C143.331 48.5869 143.784 49.0977 143.784 49.8089C143.784 50.501 143.331 51.0309 142.62 51.0309C141.928 51.0309 141.455 50.501 141.455 49.8089ZM141.952 46.9879L141.675 37.5176H143.57L143.293 46.9879H141.952Z" fill="#00AAFF"/>
</svg>
