<svg width="12" height="13" viewBox="0 0 12 13" fill="none" xmlns="http://www.w3.org/2000/svg">
<path d="M2.66607 1.99672C2.61667 1.94104 2.55671 1.89571 2.48967 1.86337C2.42262 1.83103 2.34983 1.81232 2.2755 1.80832C2.20117 1.80432 2.12679 1.81512 2.05666 1.84008C1.98654 1.86504 1.92206 1.90367 1.86697 1.95373C1.81189 2.00379 1.76728 2.06429 1.73575 2.13172C1.70422 2.19914 1.68638 2.27216 1.68327 2.34653C1.68017 2.4209 1.69185 2.49515 1.71765 2.56497C1.74345 2.63479 1.78285 2.6988 1.83357 2.75328L2.58357 3.58063C0.968724 4.65594 0.267943 6.19906 0.234193 6.27172C0.202436 6.34372 0.186035 6.42155 0.186035 6.50024C0.186035 6.57893 0.202436 6.65675 0.234193 6.72875C0.251537 6.76719 0.662162 7.67844 1.56966 8.58547C2.78279 9.79719 4.31232 10.4375 5.99982 10.4375C6.81996 10.442 7.63274 10.2827 8.39044 9.96875L9.33216 11.0047C9.43302 11.113 9.57251 11.1772 9.72039 11.1834C9.86828 11.1896 10.0126 11.1372 10.1222 11.0377C10.2317 10.9381 10.2976 10.7994 10.3056 10.6516C10.3135 10.5038 10.2629 10.3589 10.1647 10.2481L2.66607 1.99672ZM5.99982 9.3125C4.61279 9.3125 3.39966 8.80953 2.39466 7.81813C1.99934 7.4267 1.65919 6.98325 1.38357 6.5C1.6306 6.0636 2.26435 5.09844 3.35232 4.42391L7.57529 9.06969C7.06601 9.23231 6.53442 9.31423 5.99982 9.3125ZM11.7654 6.72875C11.7486 6.76672 11.3436 7.66625 10.4529 8.56438C10.4019 8.62099 10.34 8.66665 10.2708 8.69858C10.2016 8.73052 10.1267 8.74807 10.0505 8.75017C9.97434 8.75226 9.89854 8.73886 9.82771 8.71078C9.75688 8.6827 9.69249 8.64052 9.63845 8.5868C9.58441 8.53308 9.54185 8.46894 9.51336 8.39828C9.48485 8.32761 9.47101 8.25189 9.47266 8.17572C9.4743 8.09954 9.49141 8.02449 9.52294 7.95513C9.55447 7.88576 9.59976 7.82352 9.65607 7.77219C10.0302 7.39181 10.3529 6.96412 10.6161 6.5C10.3406 6.01665 10.0004 5.57318 9.60497 5.18188C8.59951 4.19047 7.38685 3.6875 5.99982 3.6875C5.84279 3.6875 5.68576 3.69406 5.53107 3.70719C5.45652 3.71517 5.38114 3.70818 5.30934 3.68661C5.23753 3.66505 5.17077 3.62934 5.11296 3.5816C5.05516 3.53387 5.00748 3.47505 4.97273 3.40862C4.93798 3.34219 4.91686 3.26949 4.91061 3.19478C4.90436 3.12007 4.91311 3.04486 4.93634 2.97358C4.95957 2.9023 4.99682 2.83639 5.04589 2.77971C5.09496 2.72303 5.15486 2.67673 5.22208 2.64354C5.28931 2.61034 5.36248 2.59092 5.43732 2.58641C5.62154 2.57047 5.81232 2.5625 5.99982 2.5625C7.68732 2.5625 9.21685 3.20328 10.429 4.415C11.3361 5.32203 11.7467 6.23375 11.764 6.27172C11.796 6.34362 11.8127 6.4214 11.8129 6.50009C11.8131 6.57878 11.797 6.65666 11.7654 6.72875Z" fill="#B8B8B8"/>
</svg>
