<svg xmlns="http://www.w3.org/2000/svg" width="38" height="39" viewBox="0 0 38 39"><defs><style>.a{fill:#f38b1c;}.b{fill:#fff;}</style></defs><g transform="translate(-370 -64)"><rect class="a" width="38" height="39" rx="10" transform="translate(370 64)"/><g transform="translate(379.996 75.236)"><g transform="translate(0 0)"><g transform="translate(0)"><path class="b" d="M11.815,12.965a3.1,3.1,0,1,1,3.1,3.042A3.07,3.07,0,0,1,11.815,12.965ZM1.357,14.335a1.334,1.334,0,1,1,0-2.668h5.92a1.334,1.334,0,1,1,0,2.668ZM0,3.042A3.07,3.07,0,0,1,3.1,0a3.069,3.069,0,0,1,3.1,3.042A3.07,3.07,0,0,1,3.1,6.085,3.07,3.07,0,0,1,0,3.042ZM10.731,4.376a1.334,1.334,0,1,1,0-2.667h5.92a1.334,1.334,0,1,1,0,2.667Z"/></g></g></g></g></svg>