<svg width="22" height="20" viewBox="0 0 22 20" fill="none" xmlns="http://www.w3.org/2000/svg">
<path d="M6.875 6.375C6.875 6.07663 6.99353 5.79048 7.2045 5.5795C7.41548 5.36853 7.70163 5.25 8 5.25H14C14.2984 5.25 14.5845 5.36853 14.7955 5.5795C15.0065 5.79048 15.125 6.07663 15.125 6.375C15.125 6.67337 15.0065 6.95952 14.7955 7.1705C14.5845 7.38147 14.2984 7.5 14 7.5H8C7.70163 7.5 7.41548 7.38147 7.2045 7.1705C6.99353 6.95952 6.875 6.67337 6.875 6.375ZM8 11.25H14C14.2984 11.25 14.5845 11.1315 14.7955 10.9205C15.0065 10.7095 15.125 10.4234 15.125 10.125C15.125 9.82663 15.0065 9.54048 14.7955 9.32951C14.5845 9.11853 14.2984 9 14 9H8C7.70163 9 7.41548 9.11853 7.2045 9.32951C6.99353 9.54048 6.875 9.82663 6.875 10.125C6.875 10.4234 6.99353 10.7095 7.2045 10.9205C7.41548 11.1315 7.70163 11.25 8 11.25ZM21.125 2.25V14.25C21.125 14.7473 20.9275 15.2242 20.5758 15.5758C20.2242 15.9275 19.7473 16.125 19.25 16.125H13.8022L12.6284 18.18C12.4645 18.4672 12.2275 18.706 11.9415 18.872C11.6555 19.0381 11.3307 19.1256 11 19.1256C10.6693 19.1256 10.3445 19.0381 10.0585 18.872C9.77247 18.706 9.53549 18.4672 9.37156 18.18L8.19781 16.125H2.75C2.25272 16.125 1.77581 15.9275 1.42417 15.5758C1.07254 15.2242 0.875 14.7473 0.875 14.25V2.25C0.875 1.75272 1.07254 1.27581 1.42417 0.924175C1.77581 0.572544 2.25272 0.375 2.75 0.375H19.25C19.7473 0.375 20.2242 0.572544 20.5758 0.924175C20.9275 1.27581 21.125 1.75272 21.125 2.25ZM18.875 2.625H3.125V13.875H8.85031C9.04869 13.875 9.24354 13.9275 9.4151 14.0271C9.58666 14.1267 9.72882 14.2699 9.82719 14.4422L11 16.4944L12.1728 14.4422C12.2712 14.2699 12.4133 14.1267 12.5849 14.0271C12.7565 13.9275 12.9513 13.875 13.1497 13.875H18.875V2.625Z" fill="#A3A3A3"/>
</svg>
