<svg width="4" height="14" viewBox="0 0 4 14" fill="none" xmlns="http://www.w3.org/2000/svg">
<path d="M3.56055 12C3.56055 12.3978 3.40251 12.7794 3.12121 13.0607C2.8399 13.342 2.45837 13.5 2.06055 13.5C1.66272 13.5 1.28119 13.342 0.999887 13.0607C0.718582 12.7794 0.560547 12.3978 0.560547 12C0.560547 11.6022 0.718582 11.2206 0.999887 10.9393C1.28119 10.658 1.66272 10.5 2.06055 10.5C2.45837 10.5 2.8399 10.658 3.12121 10.9393C3.40251 11.2206 3.56055 11.6022 3.56055 12ZM3.56055 7C3.56055 7.39782 3.40251 7.77936 3.12121 8.06066C2.8399 8.34196 2.45837 8.5 2.06055 8.5C1.66272 8.5 1.28119 8.34196 0.999887 8.06066C0.718582 7.77936 0.560547 7.39782 0.560547 7C0.560547 6.60218 0.718582 6.22064 0.999887 5.93934C1.28119 5.65804 1.66272 5.5 2.06055 5.5C2.45837 5.5 2.8399 5.65804 3.12121 5.93934C3.40251 6.22064 3.56055 6.60218 3.56055 7ZM3.56055 2C3.56055 2.39782 3.40251 2.77936 3.12121 3.06066C2.8399 3.34196 2.45837 3.5 2.06055 3.5C1.66272 3.5 1.28119 3.34196 0.999887 3.06066C0.718582 2.77936 0.560547 2.39782 0.560547 2C0.560547 1.60218 0.718582 1.22064 0.999887 0.93934C1.28119 0.658035 1.66272 0.5 2.06055 0.5C2.45837 0.5 2.8399 0.658035 3.12121 0.93934C3.40251 1.22064 3.56055 1.60218 3.56055 2Z" fill="#001329"/>
</svg>
