<svg width="16" height="16" viewBox="0 0 16 16" fill="none" xmlns="http://www.w3.org/2000/svg">
<path d="M7.98014 1.3335C4.30014 1.3335 1.31348 4.32016 1.31348 8.00016C1.31348 11.6802 4.30014 14.6668 7.98014 14.6668C11.6601 14.6668 14.6468 11.6802 14.6468 8.00016C14.6468 4.32016 11.6668 1.3335 7.98014 1.3335ZM9.98014 9.48683L8.04681 10.6002C7.80681 10.7402 7.54014 10.8068 7.28014 10.8068C7.01348 10.8068 6.75348 10.7402 6.51348 10.6002C6.03348 10.3202 5.74681 9.82683 5.74681 9.26683V7.0335C5.74681 6.48016 6.03348 5.98016 6.51348 5.70016C6.99348 5.42016 7.56681 5.42016 8.05348 5.70016L9.98681 6.8135C10.4668 7.0935 10.7535 7.58683 10.7535 8.14683C10.7535 8.70683 10.4668 9.20683 9.98014 9.48683Z" fill="white" fill-opacity="0.8"/>
</svg>
