<svg width="20" height="20" viewBox="0 0 20 20" fill="none" xmlns="http://www.w3.org/2000/svg">
<path d="M20.0002 10.625C20.0002 10.8736 19.9014 11.1121 19.7256 11.2879C19.5498 11.4637 19.3113 11.5625 19.0627 11.5625H18.4377V12.1875C18.4377 12.4361 18.3389 12.6746 18.1631 12.8504C17.9873 13.0262 17.7488 13.125 17.5002 13.125C17.2515 13.125 17.0131 13.0262 16.8373 12.8504C16.6615 12.6746 16.5627 12.4361 16.5627 12.1875V11.5625H15.9377C15.689 11.5625 15.4506 11.4637 15.2748 11.2879C15.099 11.1121 15.0002 10.8736 15.0002 10.625C15.0002 10.3764 15.099 10.1379 15.2748 9.96209C15.4506 9.78627 15.689 9.6875 15.9377 9.6875H16.5627V9.0625C16.5627 8.81386 16.6615 8.5754 16.8373 8.39959C17.0131 8.22377 17.2515 8.125 17.5002 8.125C17.7488 8.125 17.9873 8.22377 18.1631 8.39959C18.3389 8.5754 18.4377 8.81386 18.4377 9.0625V9.6875H19.0627C19.3113 9.6875 19.5498 9.78627 19.7256 9.96209C19.9014 10.1379 20.0002 10.3764 20.0002 10.625ZM15.7181 15.0219C15.8781 15.2123 15.9559 15.4585 15.9343 15.7062C15.9128 15.954 15.7937 16.183 15.6033 16.343C15.4129 16.5029 15.1667 16.5807 14.919 16.5592C14.6712 16.5376 14.4422 16.4185 14.2822 16.2281C13.2127 14.9547 11.3283 13.4375 8.43768 13.4375C6.18065 13.4375 4.10487 14.4281 2.59315 16.2281C2.43319 16.4185 2.20414 16.5376 1.95639 16.5592C1.70863 16.5807 1.46247 16.5029 1.27205 16.343C1.08164 16.183 0.962563 15.954 0.941026 15.7062C0.919488 15.4585 0.997252 15.2123 1.15721 15.0219C2.17575 13.7917 3.48243 12.8323 4.96112 12.2289C4.04161 11.506 3.37033 10.5144 3.04069 9.39218C2.71105 8.26993 2.73945 7.07284 3.12193 5.96749C3.50441 4.86214 4.22196 3.90352 5.17471 3.22502C6.12746 2.54652 7.26802 2.1819 8.43768 2.1819C9.60734 2.1819 10.7479 2.54652 11.7007 3.22502C12.6534 3.90352 13.3709 4.86214 13.7534 5.96749C14.1359 7.07284 14.1643 8.26993 13.8347 9.39218C13.505 10.5144 12.8337 11.506 11.9142 12.2289C13.3931 12.8321 14.6998 13.7916 15.7181 15.0219ZM8.43768 11.5625C9.17936 11.5625 9.90438 11.3426 10.5211 10.9305C11.1378 10.5185 11.6184 9.93279 11.9022 9.24756C12.1861 8.56234 12.2603 7.80834 12.1156 7.08091C11.9709 6.35348 11.6138 5.6853 11.0893 5.16085C10.5649 4.6364 9.8967 4.27925 9.16927 4.13456C8.44184 3.98986 7.68784 4.06412 7.00262 4.34795C6.31739 4.63178 5.73172 5.11243 5.31967 5.72911C4.90761 6.3458 4.68768 7.07082 4.68768 7.8125C4.68871 8.80674 5.08413 9.75997 5.78717 10.463C6.49021 11.166 7.44344 11.5615 8.43768 11.5625Z" fill="#333333"/>
</svg>
