<svg width="16" height="16" viewBox="0 0 16 16" fill="none" xmlns="http://www.w3.org/2000/svg">
<path d="M14 8.28153C14 8.70107 13.8992 9.09036 13.6976 9.44654C13.496 9.80271 13.2267 10.0816 12.8868 10.2765C12.8964 10.3399 12.9008 10.4383 12.9008 10.5717C12.9008 11.2068 12.6876 11.7458 12.2657 12.1913C11.8414 12.6391 11.3306 12.8614 10.733 12.8614C10.4656 12.8614 10.2102 12.812 9.9688 12.7135C9.78111 13.098 9.51182 13.4072 9.15805 13.6438C8.80667 13.8829 8.41978 14 8.00024 14C7.5711 14 7.18229 13.8853 6.83523 13.6505C6.48578 13.4187 6.21889 13.1067 6.0312 12.7131C5.78975 12.8115 5.53678 12.8609 5.26701 12.8609C4.66939 12.8609 4.15625 12.6382 3.72711 12.1908C3.29797 11.7454 3.08484 11.2039 3.08484 10.5712C3.08484 10.5011 3.09444 10.4023 3.11076 10.276C2.77091 10.0792 2.50114 9.80271 2.30001 9.44606C2.1008 9.08988 2 8.70059 2 8.28105C2 7.83559 2.11232 7.42566 2.33505 7.05508C2.55778 6.68451 2.85779 6.41042 3.23269 6.23233C3.13429 5.96496 3.08484 5.69567 3.08484 5.4283C3.08484 4.79563 3.29797 4.25417 3.72711 3.80871C4.15625 3.36325 4.66939 3.13861 5.26701 3.13861C5.53438 3.13861 5.78975 3.18805 6.0312 3.28645C6.21889 2.90196 6.48818 2.59282 6.84195 2.35617C7.19333 2.11952 7.58022 2 7.99976 2C8.4193 2 8.80619 2.11952 9.15757 2.35377C9.50894 2.59042 9.78111 2.90004 9.96832 3.28405C10.2098 3.18565 10.4627 3.13621 10.7325 3.13621C11.3301 3.13621 11.8414 3.35893 12.2652 3.80631C12.6891 4.25369 12.9003 4.79323 12.9003 5.4259C12.9003 5.72111 12.8556 5.98848 12.7668 6.22993C13.1417 6.40802 13.4417 6.68211 13.6645 7.05268C13.8877 7.42614 14 7.83607 14 8.28153Z" fill="#1DA1F2"/>
<path d="M12.8101 12.7071L12.8102 12.707C13.3479 12.1393 13.6305 11.4444 13.6497 10.6582C13.9331 10.4254 14.1662 10.1412 14.3503 9.81599C14.6175 9.34381 14.75 8.82669 14.75 8.28153C14.75 7.70327 14.6023 7.15996 14.3082 6.6679L14.3073 6.66632C14.122 6.35797 13.8921 6.09468 13.6203 5.8811C13.6405 5.73227 13.6503 5.58038 13.6503 5.4259C13.6503 4.60746 13.3697 3.88157 12.8097 3.29049C12.2484 2.69811 11.5422 2.38621 10.7325 2.38621C10.5893 2.38621 10.4485 2.39662 10.3101 2.41748C10.1055 2.15149 9.85964 1.92238 9.57653 1.7317L9.57653 1.7317L9.57359 1.72974C9.10192 1.41529 8.57081 1.25 7.99976 1.25C7.42926 1.25 6.89758 1.41501 6.42495 1.73279C6.13847 1.92442 5.8927 2.15413 5.68881 2.41993C5.55012 2.39902 5.40936 2.38861 5.26701 2.38861C4.45598 2.38861 3.75065 2.70326 3.18698 3.28837C2.6184 3.87857 2.33484 4.60859 2.33484 5.4283C2.33484 5.58314 2.34716 5.73717 2.37123 5.88981C2.10291 6.10225 1.87574 6.3634 1.69223 6.66872C1.39744 7.15919 1.25 7.70327 1.25 8.28105C1.25 8.82607 1.38235 9.34178 1.64544 9.81216L1.64543 9.81216L1.64673 9.81446C1.82901 10.1377 2.05883 10.417 2.33566 10.6469C2.35263 11.4356 2.63577 12.1387 3.18642 12.7106C3.75151 13.2994 4.45766 13.6109 5.26701 13.6109C5.40793 13.6109 5.54653 13.6008 5.68277 13.5806C5.88519 13.85 6.1301 14.0823 6.41783 14.2737C6.89428 14.5951 7.42989 14.75 8.00024 14.75C8.56781 14.75 9.10108 14.589 9.57743 14.2656C9.86289 14.0743 10.1079 13.8451 10.3112 13.5801C10.4499 13.601 10.5906 13.6114 10.733 13.6114C11.5425 13.6114 12.2483 13.3001 12.8101 12.7071Z" stroke="#F4F4F5" stroke-width="1.5"/>
<path d="M14 8.28153C14 8.70107 13.8992 9.09036 13.6976 9.44654C13.496 9.80271 13.2267 10.0816 12.8868 10.2765C12.8964 10.3399 12.9008 10.4383 12.9008 10.5717C12.9008 11.2068 12.6876 11.7458 12.2657 12.1913C11.8414 12.6391 11.3306 12.8614 10.733 12.8614C10.4656 12.8614 10.2102 12.812 9.9688 12.7135C9.78111 13.098 9.51182 13.4072 9.15805 13.6438C8.80667 13.8829 8.41978 14 8.00024 14C7.5711 14 7.18229 13.8853 6.83523 13.6505C6.48578 13.4187 6.21889 13.1067 6.0312 12.7131C5.78975 12.8115 5.53678 12.8609 5.26701 12.8609C4.66939 12.8609 4.15625 12.6382 3.72711 12.1908C3.29797 11.7454 3.08484 11.2039 3.08484 10.5712C3.08484 10.5011 3.09444 10.4023 3.11076 10.276C2.77091 10.0792 2.50114 9.80271 2.30001 9.44606C2.1008 9.08988 2 8.70059 2 8.28105C2 7.83559 2.11232 7.42566 2.33505 7.05508C2.55778 6.68451 2.85779 6.41042 3.23269 6.23233C3.13429 5.96496 3.08484 5.69567 3.08484 5.4283C3.08484 4.79563 3.29797 4.25417 3.72711 3.80871C4.15625 3.36325 4.66939 3.13861 5.26701 3.13861C5.53438 3.13861 5.78975 3.18805 6.0312 3.28645C6.21889 2.90196 6.48818 2.59282 6.84195 2.35617C7.19333 2.11952 7.58022 2 7.99976 2C8.4193 2 8.80619 2.11952 9.15757 2.35377C9.50894 2.59042 9.78111 2.90004 9.96832 3.28405C10.2098 3.18565 10.4627 3.13621 10.7325 3.13621C11.3301 3.13621 11.8414 3.35893 12.2652 3.80631C12.6891 4.25369 12.9003 4.79323 12.9003 5.4259C12.9003 5.72111 12.8556 5.98848 12.7668 6.22993C13.1417 6.40802 13.4417 6.68211 13.6645 7.05268C13.8877 7.42614 14 7.83607 14 8.28153Z" fill="#1DA1F2"/>
<path d="M11.1132 6.99855L7.64636 10.4654C7.56535 10.5463 7.45551 10.5918 7.34099 10.5918C7.22647 10.5918 7.11663 10.5463 7.03562 10.4654L5.10188 8.52135C5.02101 8.44036 4.97558 8.33058 4.97558 8.21612C4.97558 8.10166 5.02101 7.99188 5.10188 7.91088L5.64188 7.37088C5.72284 7.29026 5.83245 7.24499 5.94671 7.24499C6.06097 7.24499 6.17058 7.29026 6.25154 7.37088L7.35179 8.43792L9.96431 5.85753C10.0453 5.77683 10.1549 5.73151 10.2693 5.73151C10.3836 5.73151 10.4933 5.77683 10.5742 5.85753L11.1129 6.38511C11.1534 6.42525 11.1856 6.47302 11.2075 6.52565C11.2295 6.57829 11.2408 6.63475 11.2408 6.69178C11.2408 6.74881 11.2296 6.80527 11.2077 6.85793C11.1858 6.91058 11.1536 6.95837 11.1132 6.99855Z" fill="white"/>
</svg>
